<?xml version="1.0" encoding="UTF-8" standalone="no"?>
<!DOCTYPE svg PUBLIC "-//W3C//DTD SVG 1.1//EN" "http://www.w3.org/Graphics/SVG/1.1/DTD/svg11.dtd">
<svg width="100%" height="100%" viewBox="0 0 493 479" version="1.1" xmlns="http://www.w3.org/2000/svg" xmlns:xlink="http://www.w3.org/1999/xlink" xml:space="preserve" xmlns:serif="http://www.serif.com/" style="fill-rule:evenodd;clip-rule:evenodd;stroke-linejoin:round;stroke-miterlimit:2;">
    <g transform="matrix(1,0,0,1,-736,-146)">
        <g transform="matrix(4.16667,0,0,4.16667,0,0)">
            <g id="bear">
                <g>
                    <path d="M258.026,62.675C254.727,54.645 255.823,42.985 263.705,38.02C270.29,33.872 279.828,34.532 286.064,38.949C294.873,45.188 297.418,61.332 287.226,67.681C284.179,69.579 279.399,71.338 275.796,71.212" style="fill:rgb(243,148,83);fill-rule:nonzero;"/>
                    <path d="M212.515,62.675C215.813,54.645 214.718,42.985 206.836,38.02C200.25,33.872 190.713,34.532 184.477,38.949C175.668,45.188 173.122,61.332 183.315,67.681C186.361,69.579 191.141,71.338 194.745,71.212" style="fill:rgb(243,148,83);fill-rule:nonzero;"/>
                    <path d="M264.168,62.496C263.318,57.738 264.473,51.466 268.745,48.586C271.282,46.876 275.055,47.162 277.765,48.26C280.78,49.482 282.147,52.595 282.467,55.634C283.162,62.228 275.542,65.817 270.318,67.392" style="fill:rgb(248,210,184);fill-rule:nonzero;"/>
                    <path d="M206.373,62.496C207.223,57.738 206.067,51.466 201.796,48.586C199.259,46.876 195.486,47.162 192.775,48.26C189.76,49.482 188.393,52.595 188.073,55.634C187.378,62.228 194.998,65.817 200.222,67.392" style="fill:rgb(248,210,184);fill-rule:nonzero;"/>
                    <path d="M266.111,59.663C260.808,56.954 254.872,55.786 249.056,54.83C242.759,53.795 236.535,53.215 230.179,54.205C223.205,55.291 215.482,56.437 209.167,59.663C189.575,69.672 178.69,94.028 180.729,115.7C183.292,142.935 212.014,150.296 237.639,149.771C263.264,150.296 291.986,142.935 294.549,115.7C296.588,94.028 285.703,69.672 266.111,59.663Z" style="fill:rgb(249,166,103);fill-rule:nonzero;"/>
                    <path d="M237.623,88.655C233.469,88.305 229.556,90.052 226.943,93.543C223.907,97.6 221.553,101.149 219.873,105.978C218.374,110.286 217.131,114.978 217.249,119.578C217.33,122.703 219.784,125.407 222.243,127.208C227.652,131.169 235.421,131.74 241.862,130.867C249.374,129.849 259.411,124.601 257.88,115.573C256.92,109.921 254.89,103.704 251.565,98.97C248.538,94.659 245.204,90.472 239.902,89.055C239.138,88.852 238.377,88.719 237.623,88.655Z" style="fill:rgb(248,210,184);fill-rule:nonzero;"/>
                    <path d="M209.17,115.912C207.907,115.912 206.662,115.728 205.538,115.173C203.688,114.26 202.339,112.04 203.05,110.103C203.897,107.793 207.231,106.587 210.456,106.587C214.684,106.587 218.723,108.662 216.707,113.039C215.866,114.865 213.604,115.477 211.61,115.733C210.807,115.836 209.985,115.912 209.17,115.912Z" style="fill:rgb(246,144,91);fill-rule:nonzero;"/>
                    <path d="M266.108,115.912C265.293,115.912 264.471,115.836 263.668,115.733C261.674,115.477 259.411,114.865 258.571,113.039C256.555,108.662 260.594,106.587 264.822,106.587C268.047,106.587 271.381,107.793 272.229,110.103C272.939,112.04 271.59,114.26 269.74,115.173C268.616,115.728 267.371,115.912 266.108,115.912Z" style="fill:rgb(246,144,91);fill-rule:nonzero;"/>
                    <path d="M294.555,115.632C294.556,115.622 294.557,115.616 294.557,115.606C294.557,115.615 294.556,115.623 294.555,115.632ZM294.561,115.562C294.562,115.553 294.563,115.544 294.564,115.535C294.563,115.544 294.562,115.553 294.561,115.562ZM294.568,115.493C294.569,115.484 294.569,115.475 294.57,115.465C294.569,115.475 294.569,115.484 294.568,115.493ZM294.574,115.424C294.575,115.413 294.576,115.406 294.577,115.395C294.576,115.404 294.575,115.415 294.574,115.424ZM294.58,115.352C294.581,115.344 294.582,115.335 294.582,115.327C294.582,115.336 294.581,115.344 294.58,115.352ZM294.587,115.273C294.588,115.269 294.588,115.263 294.588,115.259C294.588,115.263 294.588,115.268 294.587,115.273ZM294.6,115.118C294.601,115.113 294.601,115.108 294.602,115.102C294.601,115.108 294.601,115.113 294.6,115.118ZM294.606,115.047C294.607,115.042 294.607,115.036 294.607,115.031C294.607,115.036 294.607,115.042 294.606,115.047ZM294.612,114.975C294.612,114.97 294.613,114.966 294.613,114.961C294.613,114.965 294.612,114.971 294.612,114.975ZM294.618,114.899C294.618,114.896 294.618,114.894 294.619,114.892C294.618,114.894 294.618,114.897 294.618,114.899Z" style="fill:rgb(246,226,217);fill-rule:nonzero;"/>
                    <path d="M240.144,149.797C239.307,149.797 238.471,149.788 237.639,149.771C236.859,149.787 236.076,149.795 235.291,149.795C232.306,149.795 229.293,149.679 226.295,149.441C232.031,148.79 237.715,147.771 243.087,146.84C257.245,144.385 269.703,137.333 277.984,125.536C286.085,113.995 288.702,99.635 286.68,85.861C286.558,85.026 286.413,84.208 286.258,83.397C286.217,81.883 286.144,80.369 286.018,78.856C292.465,89.624 295.587,102.648 294.619,114.892C294.618,114.894 294.618,114.896 294.618,114.899C294.616,114.92 294.615,114.94 294.613,114.961C294.613,114.966 294.612,114.97 294.612,114.975C294.61,114.994 294.609,115.012 294.607,115.031C294.607,115.036 294.607,115.042 294.606,115.047C294.605,115.065 294.603,115.084 294.602,115.102C294.601,115.108 294.601,115.113 294.6,115.118C294.596,115.165 294.592,115.212 294.588,115.259C294.588,115.263 294.588,115.269 294.587,115.273C294.586,115.291 294.584,115.309 294.582,115.327C294.582,115.335 294.581,115.344 294.58,115.352C294.579,115.366 294.578,115.381 294.577,115.395C294.576,115.406 294.575,115.413 294.574,115.424C294.573,115.438 294.572,115.451 294.57,115.465C294.569,115.475 294.569,115.484 294.568,115.493C294.567,115.507 294.565,115.521 294.564,115.535C294.563,115.544 294.562,115.553 294.561,115.562C294.56,115.577 294.559,115.592 294.557,115.606C294.557,115.616 294.556,115.622 294.555,115.632C294.553,115.654 294.551,115.677 294.549,115.7C292.07,142.05 265.102,149.797 240.144,149.797Z" style="fill:rgb(248,158,98);fill-rule:nonzero;"/>
                    <path d="M217.251,119.627L217.251,119.623L217.251,119.627ZM217.25,119.605L217.25,119.6L217.25,119.605ZM219.873,105.978C220.448,104.325 221.102,102.821 221.836,101.396C221.102,102.821 220.448,104.325 219.873,105.978ZM221.87,101.33C221.871,101.329 221.871,101.328 221.872,101.326C221.871,101.328 221.871,101.329 221.87,101.33ZM226.943,93.543C229.337,90.346 232.82,88.611 236.58,88.611C236.915,88.611 237.252,88.625 237.59,88.653C237.252,88.625 236.915,88.611 236.58,88.611C232.82,88.611 229.337,90.346 226.943,93.543Z" style="fill:rgb(251,182,121);fill-rule:nonzero;"/>
                    <path d="M219.737,124.966C218.357,123.442 217.318,121.624 217.251,119.627L217.251,119.623C217.251,119.617 217.25,119.611 217.25,119.605L217.25,119.6C217.25,119.593 217.25,119.585 217.249,119.578C217.244,119.381 217.242,119.183 217.242,118.985C217.238,114.575 218.439,110.101 219.873,105.978C220.448,104.325 221.102,102.821 221.836,101.396C221.847,101.374 221.859,101.352 221.87,101.33C221.871,101.329 221.871,101.328 221.872,101.326C223.274,98.618 224.963,96.189 226.943,93.543C229.337,90.346 232.82,88.611 236.58,88.611C236.915,88.611 237.252,88.625 237.59,88.653C237.601,88.653 237.612,88.654 237.623,88.655C238.377,88.719 239.138,88.852 239.902,89.056C241.186,89.399 242.349,89.912 243.426,90.542C239.516,91.916 235.803,93.981 232.422,96.867C224.9,103.29 221.01,114.396 219.737,124.966Z" style="fill:rgb(249,217,196);fill-rule:nonzero;"/>
                    <path d="M237.008,101.058C237.044,103.381 237.132,105.702 237.271,108.021C237.309,108.662 238.309,108.666 238.271,108.021C238.132,105.702 238.044,103.381 238.008,101.058C237.997,100.414 236.997,100.413 237.008,101.058Z" style="fill:rgb(123,52,75);fill-rule:nonzero;"/>
                    <path d="M231.055,104.029C232.725,111.236 242.835,111.081 244.223,103.787C244.343,103.157 243.379,102.888 243.259,103.521C242.061,109.815 233.475,110.044 232.019,103.763C231.874,103.135 230.91,103.401 231.055,104.029Z" style="fill:rgb(123,52,75);fill-rule:nonzero;"/>
                    <path d="M244.445,94.936C244.121,94.717 243.751,94.548 243.389,94.407C239.536,92.909 234.651,92.856 231.098,95.15C230.544,95.508 229.996,95.986 229.877,96.636C229.619,98.053 231.245,99.285 232.025,100.26C232.958,101.428 234.263,102.008 235.552,102.745C236.295,103.17 237.074,103.606 237.929,103.647C239.946,103.742 241.915,101.646 243.301,100.401C244.408,99.407 245.883,97.467 245.294,95.931C245.133,95.511 244.82,95.19 244.445,94.936Z" style="fill:rgb(123,52,75);fill-rule:nonzero;"/>
                </g>
                <g id="ojos">
                    <path d="M217.014,99.204C217.014,96.759 215.031,94.776 212.586,94.776C210.141,94.776 208.158,96.759 208.158,99.204C208.158,101.649 210.141,103.631 212.586,103.631C215.031,103.631 217.014,101.649 217.014,99.204Z" style="fill:rgb(123,52,75);fill-rule:nonzero;"/>
                    <path d="M258.265,99.204C258.265,96.759 260.247,94.776 262.692,94.776C265.138,94.776 267.12,96.759 267.12,99.204C267.12,101.649 265.138,103.631 262.692,103.631C260.247,103.631 258.265,101.649 258.265,99.204Z" style="fill:rgb(123,52,75);fill-rule:nonzero;"/>
                </g>
            </g>
        </g>
    </g>
</svg>
