<?xml version="1.0" encoding="UTF-8" standalone="no"?>
<!DOCTYPE svg PUBLIC "-//W3C//DTD SVG 1.1//EN" "http://www.w3.org/Graphics/SVG/1.1/DTD/svg11.dtd">
<svg width="100%" height="100%" viewBox="0 0 456 553" version="1.1" xmlns="http://www.w3.org/2000/svg" xmlns:xlink="http://www.w3.org/1999/xlink" xml:space="preserve" xmlns:serif="http://www.serif.com/" style="fill-rule:evenodd;clip-rule:evenodd;stroke-linejoin:round;stroke-miterlimit:2;">
    <g transform="matrix(1,0,0,1,-116,-109)">
        <g transform="matrix(4.16667,0,0,4.16667,0,0)">
            <g id="chicken">
                <g>
                    <path d="M135.961,116.338C134.869,109.919 133.709,103.472 131.477,97.356C126.351,83.315 114.971,71.228 100.579,67.197L83.874,66.084L83.874,65.915L82.606,66L81.338,65.915L81.338,66.084L64.634,67.197C50.241,71.228 38.861,83.315 33.736,97.356C31.503,103.472 30.343,109.919 29.252,116.338C28.505,120.727 27.784,125.173 28.133,129.611C28.646,136.133 31.556,142.44 36.185,147.063C41.965,152.835 51.93,156.776 59.94,157.626C67.046,158.38 74.191,158.782 81.338,158.805L81.338,158.82C81.568,158.822 81.798,158.819 82.027,158.816C82.22,158.814 82.413,158.812 82.606,158.813C82.799,158.812 82.992,158.814 83.185,158.816C83.414,158.819 83.644,158.822 83.874,158.82L83.874,158.805C91.021,158.782 98.167,158.38 105.273,157.626C113.283,156.776 123.247,152.835 129.026,147.063C133.657,142.44 136.567,136.133 137.08,129.611C137.429,125.173 136.707,120.727 135.961,116.338Z" style="fill:white;fill-rule:nonzero;"/>
                    <path d="M60.326,131.282C59.101,131.282 57.894,131.104 56.803,130.565C55.009,129.68 53.7,127.526 54.39,125.647C55.212,123.406 58.446,122.237 61.573,122.237C65.675,122.237 69.593,124.25 67.638,128.495C66.822,130.266 64.627,130.86 62.693,131.108C61.914,131.208 61.117,131.282 60.326,131.282Z" style="fill:rgb(252,220,220);fill-rule:nonzero;"/>
                    <path d="M105.769,131.282C104.979,131.282 104.181,131.208 103.403,131.108C101.468,130.86 99.273,130.266 98.458,128.495C96.503,124.25 100.421,122.237 104.522,122.237C107.65,122.237 110.884,123.406 111.706,125.647C112.395,127.526 111.087,129.68 109.292,130.565C108.202,131.104 106.994,131.282 105.769,131.282Z" style="fill:rgb(252,220,220);fill-rule:nonzero;"/>
                    <path d="M80.266,123.321C80.518,125.124 80.77,126.96 80.475,128.757C80.222,130.299 79.576,131.744 79,133.197C77.59,136.762 76.566,140.559 76.765,144.387C76.881,146.62 77.393,148.783 79.285,150.194C81.828,152.091 84.982,150.941 86.752,148.545C90.055,144.073 87.121,137.455 85.936,132.761C85.37,130.516 85.028,128.213 84.919,125.9C84.836,124.16 84.946,122.249 86.11,120.953" style="fill:rgb(242,114,131);fill-rule:nonzero;"/>
                    <path d="M93.6,115.081C93.82,115.189 94.039,115.302 94.257,115.419C94.499,115.549 89.84,121.098 89.363,121.56C87.276,123.575 85.231,125.679 83.197,127.751C83.126,127.825 83.042,127.903 82.94,127.904L82.709,127.802C78.324,124.585 74.433,120.616 70.954,116.422C70.734,116.158 75.265,114.134 75.683,114.008C77.416,113.483 79.307,113.183 81.108,113.036C85.504,112.676 89.696,113.161 93.6,115.081Z" style="fill:rgb(253,212,6);fill-rule:nonzero;"/>
                    <path d="M81.338,158.805C74.191,158.782 67.046,158.38 59.94,157.626C59.927,157.624 59.913,157.623 59.899,157.622C59.913,157.623 59.926,157.624 59.94,157.626C67.046,158.38 74.191,158.782 81.338,158.805ZM59.871,157.619C59.869,157.618 59.866,157.618 59.864,157.618C59.867,157.618 59.869,157.618 59.871,157.619Z" style="fill:rgb(242,233,220);fill-rule:nonzero;"/>
                    <path d="M83.696,158.82C83.526,158.82 83.355,158.818 83.185,158.816C83.017,158.814 82.849,158.812 82.681,158.812C82.656,158.812 82.631,158.812 82.606,158.813C82.581,158.812 82.556,158.812 82.532,158.812C82.364,158.812 82.195,158.814 82.027,158.816C81.857,158.818 81.687,158.82 81.516,158.82L81.338,158.82L81.338,158.805C74.191,158.782 67.046,158.38 59.94,157.626C59.926,157.624 59.913,157.623 59.899,157.622C59.89,157.621 59.881,157.62 59.871,157.619C59.869,157.618 59.867,157.618 59.864,157.618C58.306,157.449 56.673,157.154 55.014,156.761C55.257,156.769 55.508,156.777 55.748,156.785C57.436,156.838 59.136,156.867 60.842,156.867C75.297,156.867 90.249,154.791 103.025,147.851C108.877,144.672 113.655,140.377 117.486,135.351C123.871,128.095 127.556,118.499 129.313,108.721C129.767,106.196 129.983,103.705 130.022,101.231C130.257,99.064 130.389,96.862 130.393,94.668C130.778,95.555 131.146,96.449 131.477,97.356C133.709,103.472 134.869,109.919 135.961,116.338C136.573,119.938 137.169,123.577 137.17,127.218C137.171,128.015 137.143,128.813 137.08,129.611C136.567,136.133 133.657,142.44 129.026,147.063C123.247,152.835 113.283,156.776 105.273,157.626C98.167,158.38 91.021,158.782 83.874,158.805L83.874,158.82L83.696,158.82Z" style="fill:rgb(253,252,250);fill-rule:nonzero;"/>
                    <path d="M28.729,133.392C28.451,132.145 28.233,130.885 28.133,129.611C28.07,128.813 28.042,128.015 28.042,127.218C28.044,123.577 28.639,119.938 29.252,116.338C30.343,109.919 31.503,103.472 33.736,97.356C38.861,83.315 50.241,71.228 64.634,67.197L64.779,67.187C66.507,72.485 68.742,78.247 72.801,81.704C73.006,81.878 73.216,82.048 73.431,82.213C70.569,83.553 67.758,85.049 65.005,86.714C49.488,96.092 33.753,114.153 28.729,133.392ZM96.564,74.72C100.275,73.063 104.235,71.722 108.042,70.146C109.501,70.897 110.915,71.733 112.283,72.643C106.992,73.015 101.738,73.688 96.564,74.72Z" style="fill:white;fill-rule:nonzero;"/>
                    <path d="M109.409,69.566C104.078,71.889 98.348,73.607 93.351,76.285C88.871,78.685 82.516,84.894 77.076,83.944C75.472,83.664 74.04,82.759 72.801,81.704C67.793,77.439 65.562,69.665 63.634,63.584C61.357,56.404 60.532,48.623 62.669,41.303C63.743,37.624 65.934,33.812 69.626,32.785C72.075,32.105 74.781,32.838 76.818,34.357C78.925,35.929 79.694,38.277 80.81,40.58C82.155,34.816 85.794,29.299 91.285,27.091C96.776,24.884 104.046,26.962 106.457,32.367C108.8,37.622 106.18,43.645 103.598,48.786C105.845,44.314 114.525,45.298 118.157,46.985C124.73,50.04 124.073,59.355 119.133,63.717C116.284,66.232 112.933,68.031 109.409,69.566Z" style="fill:rgb(242,114,131);fill-rule:nonzero;"/>
                    <path d="M63.657,63.657C63.656,63.656 63.656,63.655 63.656,63.654C63.656,63.655 63.656,63.656 63.657,63.657ZM63.65,63.635C63.644,63.618 63.639,63.601 63.634,63.584C62.273,59.293 61.431,54.787 61.429,50.293C61.431,54.787 62.273,59.293 63.634,63.584C63.639,63.601 63.644,63.618 63.65,63.635ZM76.818,34.357C76.795,34.341 76.773,34.324 76.751,34.308C76.773,34.324 76.795,34.341 76.818,34.357ZM69.654,32.778C70.269,32.609 70.9,32.53 71.533,32.53C70.901,32.53 70.269,32.609 69.654,32.778ZM71.543,32.53L71.535,32.53L71.543,32.53ZM86.007,30.71C87.502,29.159 89.269,27.902 91.285,27.091C91.456,27.023 91.628,26.958 91.802,26.898C91.628,26.958 91.456,27.023 91.285,27.091C89.269,27.902 87.502,29.159 86.007,30.71Z" style="fill:rgb(248,241,231);fill-rule:nonzero;"/>
                    <path d="M71.339,80.264C67.359,75.859 65.38,69.096 63.657,63.657C63.656,63.656 63.656,63.655 63.656,63.654C63.654,63.648 63.652,63.642 63.65,63.635C63.644,63.618 63.639,63.601 63.634,63.584C62.273,59.293 61.431,54.787 61.429,50.293C61.429,47.268 61.809,44.248 62.669,41.303C63.743,37.624 65.934,33.812 69.626,32.785C69.635,32.783 69.645,32.78 69.654,32.778C70.269,32.609 70.901,32.53 71.533,32.53L71.543,32.53C73.389,32.532 75.247,33.207 76.751,34.308C76.773,34.324 76.795,34.341 76.818,34.357C78.925,35.929 79.693,38.277 80.81,40.58C81.661,36.932 83.431,33.384 86.007,30.71C87.502,29.159 89.269,27.902 91.285,27.091C91.456,27.023 91.628,26.958 91.802,26.898C93.108,26.445 94.499,26.225 95.891,26.225C97.937,26.225 99.986,26.7 101.772,27.608C100.44,30.55 98.25,33.232 96.204,35.56C91.016,41.459 85.016,46.497 80.309,52.828C74.416,60.754 70.513,70.853 71.339,80.264Z" style="fill:rgb(243,126,144);fill-rule:nonzero;"/>
                </g>
                <g id="ojos">
                    <path d="M67.935,115.074C67.935,112.702 66.012,110.78 63.64,110.78C61.268,110.78 59.345,112.702 59.345,115.074C59.345,117.446 61.268,119.369 63.64,119.369C66.012,119.369 67.935,117.446 67.935,115.074Z" style="fill:rgb(123,52,75);fill-rule:nonzero;"/>
                    <path d="M106.529,115.074C106.529,112.702 104.607,110.78 102.235,110.78C99.862,110.78 97.939,112.702 97.939,115.074C97.939,117.446 99.862,119.369 102.235,119.369C104.607,119.369 106.529,117.446 106.529,115.074Z" style="fill:rgb(123,52,75);fill-rule:nonzero;"/>
                </g>
            </g>
        </g>
    </g>
</svg>
