<?xml version="1.0" encoding="UTF-8" standalone="no"?>
<!DOCTYPE svg PUBLIC "-//W3C//DTD SVG 1.1//EN" "http://www.w3.org/Graphics/SVG/1.1/DTD/svg11.dtd">
<svg width="100%" height="100%" viewBox="0 0 485 478" version="1.1" xmlns="http://www.w3.org/2000/svg" xmlns:xlink="http://www.w3.org/1999/xlink" xml:space="preserve" xmlns:serif="http://www.serif.com/" style="fill-rule:evenodd;clip-rule:evenodd;stroke-linejoin:round;stroke-miterlimit:2;">
    <g transform="matrix(1,0,0,1,-102,-747)">
        <g transform="matrix(4.16667,0,0,4.16667,0,0)">
            <g id="fox">
                <g>
                    <path d="M30.858,227.342C27.397,219.584 25.942,210.98 26.442,202.51C26.692,198.273 27.43,194.064 28.652,189.999C29.263,187.968 29.994,185.973 30.845,184.031C31.497,182.544 32.111,181.246 33.259,180.047C34.848,178.389 38.421,180.603 40.019,181.384C42.847,182.766 45.526,184.45 48.006,186.388C54.229,191.253 59.213,197.734 62.137,205.084" style="fill:rgb(239,174,89);fill-rule:nonzero;"/>
                    <path d="M129.491,227.342C132.952,219.584 134.407,210.98 133.907,202.511C133.657,198.273 132.919,194.064 131.697,189.999C131.086,187.968 130.354,185.973 129.504,184.031C128.852,182.544 128.238,181.246 127.09,180.047C125.501,178.389 121.928,180.603 120.33,181.384C117.502,182.766 114.823,184.45 112.343,186.388C106.12,191.253 101.136,197.734 98.212,205.084L129.491,227.342Z" style="fill:rgb(239,174,89);fill-rule:nonzero;"/>
                    <path d="M124.606,221.094C126.085,216.14 126.712,210.937 126.489,205.773C126.373,203.098 126.226,200.414 125.779,197.77C125.517,196.225 125.228,194.825 124.441,193.432C124.124,192.873 120.189,194.371 119.697,194.578C118.159,195.223 116.764,196.092 115.374,197.008C112.286,199.042 109.366,202.079 107.259,205.122L124.606,221.094Z" style="fill:rgb(252,223,185);fill-rule:nonzero;"/>
                    <path d="M35.743,221.094C34.264,216.14 33.637,210.937 33.86,205.773C33.976,203.098 34.123,200.414 34.57,197.771C34.831,196.225 35.121,194.825 35.908,193.432C36.225,192.873 40.16,194.372 40.652,194.578C42.19,195.223 43.585,196.092 44.975,197.008C48.063,199.042 50.983,202.079 53.09,205.122" style="fill:rgb(252,223,185);fill-rule:nonzero;"/>
                    <path d="M139.768,244.52C138.403,234.438 134.797,224.557 129.175,216.064C119.111,200.86 100.475,196.537 82.606,197.105C64.738,196.537 46.102,200.86 36.037,216.064C30.416,224.557 26.81,234.438 25.444,244.52C24.675,250.197 24.12,255.964 24.858,261.645C25.596,267.326 27.729,272.97 31.72,277.079C37.806,283.345 44.217,287.614 52.784,289.992C62.482,292.683 72.554,293.989 82.606,293.858C92.658,293.989 102.731,292.683 112.428,289.992C120.996,287.614 127.407,283.345 133.492,277.079C137.484,272.97 139.616,267.326 140.355,261.645C141.093,255.964 140.537,250.197 139.768,244.52Z" style="fill:rgb(253,193,104);fill-rule:nonzero;"/>
                    <path d="M31.72,277.079C37.806,283.345 44.217,287.614 52.784,289.992C62.482,292.683 72.554,293.989 82.606,293.858C92.658,293.989 102.731,292.683 112.428,289.992C120.996,287.614 127.407,283.345 133.492,277.079C135.829,274.674 137.513,271.735 138.668,268.578C138.649,268.477 138.639,268.377 138.619,268.276C137.928,264.896 136.228,261.581 133.352,259.675C129.475,257.102 124.422,257.555 119.784,257.926C115.147,258.296 109.953,258.301 106.523,255.157C103.711,252.58 102.8,247.81 100.257,244.789C93.856,237.185 82.47,235.479 73.516,238.871C70.233,240.115 67.225,242.093 64.955,244.789C62.412,247.81 61.502,252.58 58.689,255.157C55.26,258.301 50.066,258.296 45.429,257.926C40.791,257.555 35.737,257.102 31.86,259.675C28.985,261.581 27.285,264.896 26.594,268.276C26.573,268.377 26.564,268.477 26.544,268.578C27.7,271.735 29.383,274.674 31.72,277.079Z" style="fill:rgb(252,223,185);fill-rule:nonzero;"/>
                    <path d="M116.147,258.091C112.6,258.091 109.074,257.495 106.523,255.157C106.387,255.032 106.254,254.901 106.126,254.766C107.122,254.513 108.181,254.385 109.228,254.385C112.441,254.385 115.554,255.589 116.479,258.09C116.368,258.091 116.258,258.091 116.147,258.091Z" style="fill:rgb(250,169,93);fill-rule:nonzero;"/>
                    <path d="M107.802,265.929C106.401,265.929 105.021,265.701 103.773,265.014C101.721,263.884 100.225,261.136 101.013,258.738C101.678,256.715 103.721,255.377 106.126,254.766C106.254,254.901 106.387,255.032 106.523,255.157C109.074,257.495 112.6,258.091 116.147,258.091C116.258,258.091 116.368,258.091 116.479,258.09C116.904,259.24 116.867,260.666 116.163,262.372C115.23,264.633 112.72,265.39 110.508,265.707C109.618,265.834 108.706,265.929 107.802,265.929Z" style="fill:rgb(252,198,164);fill-rule:nonzero;"/>
                    <path d="M26.562,268.627C26.562,268.625 26.561,268.622 26.56,268.62C26.561,268.622 26.562,268.625 26.562,268.627Z" style="fill:rgb(254,202,117);fill-rule:nonzero;"/>
                    <path d="M29.257,273.983C28.155,272.319 27.258,270.516 26.562,268.627C26.562,268.625 26.561,268.622 26.56,268.62C26.555,268.606 26.55,268.592 26.544,268.578C26.564,268.477 26.573,268.377 26.594,268.276C27.285,264.896 28.985,261.581 31.86,259.675C34.292,258.061 37.186,257.638 40.15,257.638C41.912,257.638 43.7,257.788 45.429,257.926C46.618,258.02 47.843,258.091 49.066,258.091C49.66,258.091 50.253,258.076 50.841,258.037C50.722,258.261 50.622,258.494 50.542,258.738C50.076,260.155 50.408,261.695 51.182,262.951C49.471,263.102 47.742,263.228 46.068,263.458C38.707,264.472 32.368,267.979 29.257,273.983ZM64.748,256.28C63.453,255.127 61.484,254.509 59.413,254.402C61.681,251.726 62.644,247.535 64.955,244.789C67.225,242.093 70.233,240.115 73.516,238.871C76.408,237.776 79.549,237.217 82.695,237.217C86.11,237.217 89.529,237.876 92.636,239.223C92.111,239.154 91.582,239.089 91.036,239.044C90.114,238.968 89.141,238.927 88.139,238.927C83.807,238.927 78.943,239.691 75.42,241.697C70,244.786 67.37,249.62 65.198,255.247C65.058,255.608 64.908,255.953 64.748,256.28Z" style="fill:rgb(251,228,195);fill-rule:nonzero;"/>
                    <path d="M57.331,265.929C55.93,265.929 54.549,265.701 53.302,265.014C52.463,264.552 51.717,263.819 51.182,262.951C56.733,262.461 62.093,261.71 64.748,256.28C66.228,257.598 66.828,259.617 65.691,262.372C64.759,264.633 62.249,265.39 60.037,265.707C59.147,265.834 58.234,265.929 57.331,265.929Z" style="fill:rgb(252,198,164);fill-rule:nonzero;"/>
                    <path d="M50.841,258.037C52.112,255.633 55.485,254.385 58.757,254.385C58.976,254.385 59.195,254.391 59.413,254.402C59.186,254.67 58.945,254.923 58.689,255.157C56.566,257.103 53.766,257.843 50.841,258.037Z" style="fill:rgb(250,169,93);fill-rule:nonzero;"/>
                    <path d="M51.182,262.951C50.408,261.695 50.076,260.155 50.542,258.738C50.622,258.494 50.722,258.261 50.841,258.037C53.766,257.843 56.566,257.103 58.689,255.157C58.945,254.923 59.186,254.67 59.413,254.402C61.484,254.509 63.453,255.127 64.748,256.28C62.093,261.71 56.733,262.461 51.182,262.951Z" style="fill:rgb(252,202,173);fill-rule:nonzero;"/>
                    <path d="M81.969,249.512C81.977,252.49 82.068,255.464 82.243,258.438C82.281,259.078 83.281,259.082 83.243,258.438C83.068,255.464 82.977,252.49 82.969,249.512C82.967,248.867 81.967,248.867 81.969,249.512Z" style="fill:rgb(123,52,75);fill-rule:nonzero;"/>
                    <path d="M75.755,254.333C78.061,261.434 88.102,260.909 89.457,253.481C89.572,252.85 88.609,252.581 88.493,253.215C87.333,259.574 78.747,260.313 76.719,254.067C76.521,253.456 75.555,253.718 75.755,254.333Z" style="fill:rgb(123,52,75);fill-rule:nonzero;"/>
                    <path d="M85.874,251.246C88.502,249.735 91.554,246.871 89.9,244.752C89.049,243.662 87.589,243.316 86.295,243.092C84.315,242.75 82.295,242.762 80.307,243.03C78.657,243.252 76.554,243.557 75.411,244.93C75.03,245.389 74.807,246.002 74.909,246.59C75.026,247.259 75.657,247.984 76.061,248.521C76.6,249.237 77.319,249.862 78.04,250.388C79.483,251.44 81.55,252.528 83.402,252.261C83.999,252.175 84.908,251.802 85.874,251.246Z" style="fill:rgb(123,52,75);fill-rule:nonzero;"/>
                    <path d="M52.712,289.971C52.71,289.971 52.708,289.97 52.707,289.97C52.709,289.97 52.71,289.971 52.712,289.971Z" style="fill:rgb(246,228,207);fill-rule:nonzero;"/>
                    <path d="M129.175,216.064C129.167,216.051 129.158,216.038 129.149,216.025C129.158,216.038 129.167,216.051 129.175,216.064ZM129.141,216.013C129.134,216.004 129.129,215.995 129.123,215.986C129.129,215.995 129.134,216.004 129.141,216.013ZM129.114,215.972C129.108,215.964 129.103,215.956 129.097,215.947C129.103,215.956 129.108,215.963 129.114,215.972ZM129.087,215.932C129.082,215.924 129.076,215.915 129.071,215.908C129.076,215.916 129.082,215.924 129.087,215.932ZM129.061,215.892C129.054,215.884 129.048,215.875 129.044,215.867C129.048,215.875 129.054,215.884 129.061,215.892ZM129.024,215.84C129.02,215.832 129.016,215.825 129.011,215.818C129.016,215.825 129.021,215.832 129.024,215.84ZM128.996,215.796C128.993,215.791 128.989,215.785 128.985,215.78C128.989,215.786 128.992,215.791 128.996,215.796ZM128.968,215.756C128.966,215.752 128.964,215.748 128.961,215.745C128.964,215.748 128.966,215.752 128.968,215.756ZM128.942,215.717C128.94,215.715 128.94,215.713 128.938,215.71C128.94,215.712 128.94,215.715 128.942,215.717Z" style="fill:rgb(239,168,81);fill-rule:nonzero;"/>
                    <path d="M133.492,277.079C133.501,277.07 133.51,277.061 133.519,277.052C133.51,277.061 133.501,277.07 133.492,277.079ZM133.523,277.047C133.531,277.039 133.538,277.032 133.546,277.024C133.538,277.032 133.531,277.039 133.523,277.047ZM133.549,277.021C135.856,274.626 137.522,271.71 138.668,268.578C138.649,268.477 138.639,268.377 138.619,268.276C137.928,264.896 136.228,261.581 133.352,259.675C130.921,258.061 128.026,257.638 125.062,257.638L124.951,257.638C126.194,252.461 126.19,246.982 125.783,241.311C124.99,230.228 122.883,219.468 117.948,209.453C116.823,207.17 115.434,204.934 113.841,202.792C119.783,205.712 124.997,209.899 128.938,215.71C128.94,215.713 128.94,215.715 128.942,215.717C128.949,215.726 128.955,215.735 128.961,215.745C128.964,215.748 128.966,215.752 128.968,215.756C128.974,215.764 128.979,215.772 128.985,215.78C128.989,215.785 128.993,215.791 128.996,215.796C129.001,215.803 129.006,215.81 129.011,215.818C129.016,215.825 129.02,215.832 129.024,215.84C129.031,215.849 129.037,215.858 129.044,215.867C129.048,215.875 129.054,215.884 129.061,215.892C129.063,215.897 129.067,215.903 129.071,215.908C129.076,215.915 129.082,215.924 129.087,215.932C129.09,215.937 129.093,215.942 129.097,215.947C129.103,215.956 129.108,215.964 129.114,215.972C129.117,215.977 129.119,215.981 129.123,215.986C129.129,215.995 129.134,216.004 129.141,216.013C129.144,216.017 129.147,216.021 129.149,216.025C129.158,216.038 129.167,216.051 129.175,216.064C134.797,224.557 138.403,234.438 139.768,244.52C140.282,248.312 140.7,252.144 140.702,255.964C140.702,257.863 140.6,259.759 140.355,261.645C139.62,267.299 137.504,272.917 133.549,277.021Z" style="fill:rgb(252,185,93);fill-rule:nonzero;"/>
                    <path d="M83.984,293.867C83.525,293.867 83.065,293.864 82.606,293.858C82.147,293.864 81.687,293.867 81.228,293.867C71.634,293.867 62.039,292.56 52.784,289.992C52.76,289.985 52.736,289.978 52.712,289.971C52.71,289.971 52.709,289.97 52.707,289.97C49.514,289.078 46.632,287.904 43.945,286.475C51.225,287.963 58.708,288.661 66.102,288.661C68.978,288.661 71.841,288.555 74.672,288.349C90.699,287.185 109.262,282.12 119.591,268.861C122.344,265.326 124.007,261.569 124.951,257.638L125.062,257.638C128.026,257.638 130.921,258.061 133.352,259.675C136.228,261.581 137.928,264.896 138.619,268.276C138.639,268.377 138.649,268.477 138.668,268.578C137.522,271.71 135.856,274.626 133.549,277.021L133.523,277.047C133.522,277.049 133.52,277.051 133.519,277.052C133.51,277.061 133.501,277.07 133.492,277.079C127.407,283.345 120.996,287.614 112.428,289.992C103.173,292.56 93.578,293.867 83.984,293.867Z" style="fill:rgb(252,215,168);fill-rule:nonzero;"/>
                </g>
                <g id="ojos">
                    <path d="M60.643,247.894C60.643,245.609 58.791,243.757 56.506,243.757C54.221,243.757 52.369,245.609 52.369,247.894C52.369,250.178 54.221,252.03 56.506,252.03C58.791,252.03 60.643,250.178 60.643,247.894Z" style="fill:rgb(123,52,75);fill-rule:nonzero;"/>
                    <path d="M112.914,247.894C112.914,245.609 111.062,243.757 108.777,243.757C106.493,243.757 104.64,245.609 104.64,247.894C104.64,250.178 106.493,252.03 108.777,252.03C111.062,252.03 112.914,250.178 112.914,247.894Z" style="fill:rgb(123,52,75);fill-rule:nonzero;"/>
                </g>
            </g>
        </g>
    </g>
</svg>
