<?xml version="1.0" encoding="UTF-8" standalone="no"?>
<!DOCTYPE svg PUBLIC "-//W3C//DTD SVG 1.1//EN" "http://www.w3.org/Graphics/SVG/1.1/DTD/svg11.dtd">
<svg width="100%" height="100%" viewBox="0 0 523 464" version="1.1" xmlns="http://www.w3.org/2000/svg" xmlns:xlink="http://www.w3.org/1999/xlink" xml:space="preserve" xmlns:serif="http://www.serif.com/" style="fill-rule:evenodd;clip-rule:evenodd;stroke-linejoin:round;stroke-miterlimit:2;">
    <g transform="matrix(1,0,0,1,-721,-1376)">
        <g transform="matrix(4.16667,0,0,4.16667,0,0)">
            <g id="frog">
                <g>
                    <path d="M297.414,392.223C295.297,381.808 290.804,371.68 285.322,362.614C288.132,358.276 289.51,353.474 289.429,348.249C289.204,333.656 274.778,326.721 261.73,332.294C252.84,336.092 253.123,343.967 253.128,352.141C251.567,351.209 249.729,350.873 247.928,350.619C239.639,349.452 231.863,349.451 223.568,350.619C221.767,350.873 219.929,351.209 218.367,352.141C218.373,343.967 218.655,336.092 209.764,332.294C196.718,326.721 182.291,333.656 182.066,348.249C181.985,353.474 183.363,358.276 186.174,362.614C180.692,371.68 176.198,381.808 174.082,392.223C171.913,402.892 172.936,414.711 179.079,423.983C182.888,429.733 190.96,434.493 197.429,436.562C208.584,440.132 220.388,441.461 232.067,441.472C233.294,441.474 234.521,441.451 235.748,441.422C236.974,441.451 238.201,441.474 239.428,441.472C251.107,441.461 262.911,440.132 274.067,436.562C280.535,434.493 288.607,429.733 292.417,423.983C298.559,414.711 299.582,402.892 297.414,392.223Z" style="fill:rgb(70,189,159);fill-rule:nonzero;"/>
                    <path d="M208.195,365.835C212.204,357.129 194.992,356.494 192.781,362.521C191.979,364.707 193.502,367.213 195.59,368.243C197.677,369.274 200.133,369.171 202.442,368.875C204.692,368.586 207.246,367.895 208.195,365.835Z" style="fill:rgb(228,230,78);fill-rule:nonzero;"/>
                    <path d="M262.471,365.835C258.462,357.129 275.674,356.494 277.885,362.521C278.687,364.707 277.165,367.213 275.077,368.243C272.989,369.274 270.534,369.171 268.224,368.875C265.974,368.586 263.42,367.895 262.471,365.835Z" style="fill:rgb(228,230,78);fill-rule:nonzero;"/>
                    <path d="M228.398,355.283C227.977,359.798 231.174,363.266 235.623,363.525C240.115,363.787 243.237,359.546 243.15,355.415C243.129,354.449 241.629,354.447 241.65,355.415C241.727,359.058 239.3,361.846 235.623,362.025C231.916,362.206 229.584,358.645 229.898,355.283C229.988,354.319 228.487,354.328 228.398,355.283Z" style="fill:rgb(48,102,89);fill-rule:nonzero;"/>
                    <path d="M197.386,436.549C197.38,436.547 197.375,436.545 197.369,436.543C197.375,436.545 197.38,436.547 197.386,436.549ZM197.342,436.534C197.336,436.533 197.33,436.531 197.324,436.529C197.33,436.531 197.336,436.532 197.342,436.534ZM197.297,436.52C197.291,436.518 197.286,436.516 197.28,436.514C197.286,436.516 197.291,436.518 197.297,436.52ZM197.244,436.503C197.237,436.5 197.23,436.498 197.223,436.496C197.23,436.498 197.237,436.5 197.244,436.503ZM197.195,436.487C197.189,436.485 197.183,436.483 197.176,436.48C197.183,436.483 197.189,436.485 197.195,436.487ZM197.151,436.472C197.145,436.47 197.139,436.468 197.132,436.466C197.139,436.468 197.145,436.47 197.151,436.472ZM197.105,436.457C197.099,436.455 197.094,436.453 197.089,436.451C197.094,436.453 197.099,436.455 197.105,436.457ZM197.047,436.438C197.042,436.436 197.038,436.435 197.033,436.433C197.038,436.435 197.042,436.436 197.047,436.438ZM197.002,436.423C196.997,436.421 196.992,436.419 196.987,436.417C196.992,436.419 196.997,436.421 197.002,436.423ZM196.956,436.407C196.951,436.406 196.947,436.404 196.942,436.403C196.947,436.404 196.952,436.406 196.956,436.407ZM196.902,436.389C196.901,436.389 196.9,436.388 196.899,436.388C196.9,436.388 196.901,436.389 196.902,436.389ZM196.803,436.355L196.801,436.355L196.803,436.355ZM297.397,392.143C297.396,392.137 297.395,392.131 297.394,392.125C297.395,392.131 297.396,392.137 297.397,392.143Z" style="fill:rgb(243,237,224);fill-rule:nonzero;"/>
                    <path d="M239.329,441.472C238.135,441.472 236.941,441.451 235.748,441.422C234.554,441.451 233.36,441.472 232.166,441.472L232.067,441.472C220.388,441.461 208.584,440.132 197.429,436.562C197.414,436.558 197.4,436.553 197.386,436.549C197.38,436.547 197.375,436.545 197.369,436.543C197.36,436.54 197.351,436.537 197.342,436.534C197.336,436.532 197.33,436.531 197.324,436.529C197.315,436.526 197.306,436.523 197.297,436.52C197.291,436.518 197.286,436.516 197.28,436.514C197.268,436.51 197.256,436.507 197.244,436.503C197.237,436.5 197.23,436.498 197.223,436.496C197.214,436.493 197.205,436.49 197.195,436.487C197.189,436.485 197.183,436.483 197.176,436.48C197.168,436.478 197.16,436.475 197.151,436.472C197.145,436.47 197.139,436.468 197.132,436.466C197.123,436.463 197.114,436.46 197.105,436.457C197.099,436.455 197.094,436.453 197.089,436.451C197.075,436.447 197.061,436.442 197.047,436.438C197.042,436.436 197.038,436.435 197.033,436.433C197.023,436.43 197.012,436.426 197.002,436.423C196.997,436.421 196.992,436.419 196.987,436.417C196.976,436.414 196.966,436.411 196.956,436.407C196.952,436.406 196.947,436.404 196.942,436.403C196.929,436.398 196.916,436.394 196.902,436.389C196.901,436.389 196.9,436.388 196.899,436.388C196.867,436.377 196.835,436.366 196.803,436.355L196.801,436.355C192.871,435.013 188.436,432.727 184.75,429.861C195.188,433.59 206.298,435.484 217.399,435.772C218.263,435.794 219.133,435.805 220.011,435.805C237.069,435.805 256.62,431.542 270.408,421.462C270.892,421.108 271.371,420.743 271.846,420.368C270.981,421.519 271.49,423.649 273.372,423.649C275.952,423.649 275.952,419.649 273.372,419.649C273.048,419.649 272.764,419.712 272.522,419.823C283.515,410.799 291.928,395.948 294.233,381.053C295.548,384.683 296.628,388.384 297.394,392.125C297.395,392.131 297.396,392.137 297.397,392.143C297.403,392.17 297.408,392.196 297.414,392.223C298.087,395.536 298.453,398.96 298.453,402.384C298.453,409.987 296.652,417.59 292.417,423.983C288.607,429.733 280.535,434.493 274.067,436.562C262.911,440.132 251.107,441.461 239.428,441.472L239.329,441.472Z" style="fill:rgb(47,186,149);fill-rule:nonzero;"/>
                    <path d="M213.122,404.649C210.543,404.649 210.543,400.649 213.122,400.649C215.701,400.649 215.701,404.649 213.122,404.649Z" style="fill:rgb(37,183,143);fill-rule:nonzero;"/>
                    <path d="M241.372,408.149C238.792,408.149 238.792,404.149 241.372,404.149C243.951,404.149 243.951,408.149 241.372,408.149Z" style="fill:rgb(37,183,143);fill-rule:nonzero;"/>
                    <path d="M223.372,416.899C220.793,416.899 220.793,412.899 223.372,412.899C225.951,412.899 225.951,416.899 223.372,416.899Z" style="fill:rgb(37,183,143);fill-rule:nonzero;"/>
                    <path d="M233.622,428.899C231.042,428.899 231.042,424.899 233.622,424.899C236.201,424.899 236.201,428.899 233.622,428.899Z" style="fill:rgb(37,183,143);fill-rule:nonzero;"/>
                    <path d="M250.122,419.899C247.542,419.899 247.542,415.899 250.122,415.899C252.701,415.899 252.701,419.899 250.122,419.899Z" style="fill:rgb(37,183,143);fill-rule:nonzero;"/>
                    <path d="M258.372,406.399C255.793,406.399 255.793,402.399 258.372,402.399C260.952,402.399 260.952,406.399 258.372,406.399Z" style="fill:rgb(37,183,143);fill-rule:nonzero;"/>
                    <path d="M271.372,413.899C268.793,413.899 268.793,409.899 271.372,409.899C273.952,409.899 273.952,413.899 271.372,413.899Z" style="fill:rgb(37,183,143);fill-rule:nonzero;"/>
                    <path d="M271.846,420.368C272.017,420.14 272.243,419.95 272.522,419.823C272.298,420.007 272.072,420.189 271.846,420.368Z" style="fill:rgb(37,183,143);fill-rule:nonzero;"/>
                    <path d="M273.372,423.649C271.49,423.649 270.981,421.519 271.846,420.368C272.072,420.189 272.298,420.007 272.522,419.823C272.764,419.712 273.048,419.649 273.372,419.649C275.952,419.649 275.952,423.649 273.372,423.649Z" style="fill:rgb(29,179,130);fill-rule:nonzero;"/>
                    <path d="M211.872,427.899C209.292,427.899 209.292,423.899 211.872,423.899C214.451,423.899 214.451,427.899 211.872,427.899Z" style="fill:rgb(37,183,143);fill-rule:nonzero;"/>
                    <path d="M195.872,410.899C193.293,410.899 193.293,406.899 195.872,406.899C198.452,406.899 198.452,410.899 195.872,410.899Z" style="fill:rgb(37,183,143);fill-rule:nonzero;"/>
                    <path d="M204.372,417.399C201.793,417.399 201.793,413.399 204.372,413.399C206.951,413.399 206.951,417.399 204.372,417.399Z" style="fill:rgb(37,183,143);fill-rule:nonzero;"/>
                </g>
                <g id="ojos">
                    <path d="M205.678,349.408C205.678,346.648 203.441,344.411 200.681,344.411C197.921,344.411 195.684,346.648 195.684,349.408C195.684,352.168 197.921,354.405 200.681,354.405C203.441,354.405 205.678,352.168 205.678,349.408Z" style="fill:rgb(48,102,89);fill-rule:nonzero;"/>
                    <path d="M264.988,349.408C264.988,346.648 267.226,344.411 269.985,344.411C272.745,344.411 274.983,346.648 274.983,349.408C274.983,352.168 272.745,354.405 269.985,354.405C267.226,354.405 264.988,352.168 264.988,349.408Z" style="fill:rgb(48,102,89);fill-rule:nonzero;"/>
                </g>
            </g>
        </g>
    </g>
</svg>
