<?xml version="1.0" encoding="UTF-8" standalone="no"?>
<!DOCTYPE svg PUBLIC "-//W3C//DTD SVG 1.1//EN" "http://www.w3.org/Graphics/SVG/1.1/DTD/svg11.dtd">
<svg width="100%" height="100%" viewBox="0 0 605 515" version="1.1" xmlns="http://www.w3.org/2000/svg" xmlns:xlink="http://www.w3.org/1999/xlink" xml:space="preserve" xmlns:serif="http://www.serif.com/" style="fill-rule:evenodd;clip-rule:evenodd;stroke-linejoin:round;stroke-miterlimit:2;">
    <g transform="matrix(1,0,0,1,-680,-729)">
        <g transform="matrix(4.16667,0,0,4.16667,0,0)">
            <g id="koala">
                <g>
                    <path d="M264.919,206.859C263.961,199.612 264.074,191.508 267.439,184.849C270.416,178.959 276.321,175.192 282.918,174.987C289.446,174.784 297.246,179.167 301.379,184.033C305.955,189.419 309.119,196.82 308.043,203.987C305.686,219.674 284.049,220.983 272.198,217.235L264.919,206.859Z" style="fill:rgb(150,183,194);fill-rule:nonzero;"/>
                    <path d="M206.576,206.859C207.534,199.612 207.422,191.508 204.056,184.849C201.079,178.959 195.174,175.192 188.577,174.987C182.049,174.784 174.25,179.167 170.116,184.033C165.54,189.419 162.376,196.82 163.453,203.987C165.809,219.674 187.446,220.983 199.297,217.235" style="fill:rgb(150,183,194);fill-rule:nonzero;"/>
                    <path d="M269.7,210.87C268.895,206.529 269.025,201.889 270.795,197.79C272.371,194.139 275.568,191.06 279.607,190.37C283.612,189.686 287.66,192.058 290.131,195.062C293.046,198.605 294.792,204.222 291.764,208.239C288.207,212.959 281.766,213.278 276.285,213.312C274.656,213.321 273.024,213.243 271.406,213.048L269.7,210.87Z" style="fill:rgb(252,228,212);fill-rule:nonzero;"/>
                    <path d="M201.795,210.87C202.601,206.529 202.471,201.889 200.701,197.79C199.124,194.139 195.928,191.06 191.888,190.37C187.883,189.686 183.836,192.058 181.364,195.062C178.449,198.605 176.703,204.222 179.731,208.239C183.288,212.959 189.729,213.278 195.21,213.312C196.839,213.321 198.471,213.243 200.089,213.048" style="fill:rgb(252,228,212);fill-rule:nonzero;"/>
                    <path d="M292.73,240.64C288.371,228.169 282.966,215.917 272.952,207.277C263.275,198.928 249.385,195.235 236.112,195.198L235.914,195.201L235.716,195.204C222.443,195.235 208.553,198.928 198.875,207.277C188.861,215.917 183.456,228.169 179.098,240.64C174.508,253.772 174.21,269.264 183.11,280.515C192.104,291.885 206.586,296.646 220.307,297.72C230.755,298.538 241.097,298.536 251.521,297.72C265.241,296.646 279.724,291.885 288.718,280.515C297.618,269.264 297.32,253.772 292.73,240.64Z" style="fill:rgb(187,204,211);fill-rule:nonzero;"/>
                    <path d="M202.355,258.49C201.1,258.49 199.863,258.307 198.745,257.755C196.907,256.848 195.566,254.641 196.272,252.716C197.114,250.42 200.428,249.222 203.633,249.222C207.835,249.222 211.849,251.284 209.846,255.634C209.01,257.449 206.762,258.057 204.78,258.311C203.982,258.413 203.165,258.49 202.355,258.49Z" style="fill:rgb(187,191,198);fill-rule:nonzero;"/>
                    <path d="M267.794,258.49C266.984,258.49 266.167,258.413 265.369,258.311C263.387,258.057 261.138,257.449 260.302,255.634C258.299,251.284 262.313,249.222 266.516,249.222C269.72,249.222 273.034,250.42 273.877,252.716C274.583,254.641 273.242,256.848 271.403,257.755C270.286,258.307 269.049,258.49 267.794,258.49Z" style="fill:rgb(187,191,198);fill-rule:nonzero;"/>
                    <path d="M227.646,277.008C236.13,278.124 247.702,278.805 253.78,271.854C259.247,265.601 259.056,258.296 256.871,250.602C255.32,245.144 252.566,240.114 249.734,235.232C246.224,229.18 239.529,220.987 231.682,223.513C224.461,225.839 219.81,233.574 217.207,240.095C214.592,246.648 212.531,253.155 212.245,260.218C212.108,263.607 212.322,267.163 214.032,270.093C217.08,275.316 222.206,276.293 227.646,277.008Z" style="fill:rgb(252,228,212);fill-rule:nonzero;"/>
                    <path d="M231.067,229.351C227.8,231.587 225.636,236.369 224.024,239.874C222.048,244.168 220.806,248.851 220.758,253.595C220.673,262.054 229.537,265.573 236.867,264.756C240.43,264.359 244.68,263.151 247.002,260.218C250.187,256.19 248.816,249.675 247.529,245.223C246.165,240.501 243.618,236.02 240.402,232.314C238.084,229.643 234.545,226.971 231.067,229.351Z" style="fill:rgb(68,96,103);fill-rule:nonzero;"/>
                    <path d="M230.149,267.204C232.304,271.492 238.232,271.436 240.281,267.085C240.554,266.505 239.692,265.997 239.417,266.58C237.682,270.265 232.847,270.348 231.012,266.7C230.722,266.123 229.86,266.63 230.149,267.204Z" style="fill:rgb(68,96,103);fill-rule:nonzero;"/>
                    <path d="M292.73,240.64C292.722,240.616 292.714,240.594 292.706,240.57C292.714,240.594 292.722,240.616 292.73,240.64ZM292.688,240.521C292.686,240.514 292.684,240.508 292.682,240.501C292.684,240.508 292.686,240.514 292.688,240.521ZM292.661,240.442C292.66,240.439 292.659,240.436 292.658,240.433C292.659,240.436 292.659,240.438 292.661,240.442ZM292.636,240.373C292.635,240.369 292.634,240.367 292.633,240.364C292.634,240.366 292.635,240.37 292.636,240.373ZM292.612,240.303C292.611,240.3 292.61,240.298 292.609,240.294C292.61,240.297 292.611,240.301 292.612,240.303ZM292.587,240.231C292.586,240.229 292.586,240.228 292.585,240.227C292.586,240.228 292.586,240.229 292.587,240.231Z" style="fill:rgb(234,228,221);fill-rule:nonzero;"/>
                    <path d="M235.914,298.333C230.723,298.333 225.528,298.129 220.307,297.72C206.586,296.646 192.104,291.885 183.11,280.515C182.534,279.788 182.005,279.039 181.507,278.277C186.98,281.787 192.972,284.407 199.458,286.024C206.648,287.816 214.098,288.204 221.531,288.204C225.366,288.204 229.197,288.1 232.985,288.033C244.221,287.833 256.164,286.395 265.731,280.033C272.817,275.322 277.459,268.601 280.589,260.813C286.728,245.538 283.081,227.481 276.693,212.973C276.089,211.6 275.426,210.232 274.709,208.877C283.507,217.294 288.515,228.65 292.585,240.227C292.586,240.228 292.586,240.229 292.587,240.231C292.594,240.252 292.601,240.273 292.609,240.294C292.61,240.298 292.611,240.3 292.612,240.303C292.619,240.323 292.626,240.344 292.633,240.364C292.634,240.367 292.635,240.369 292.636,240.373C292.643,240.393 292.65,240.413 292.658,240.433C292.659,240.436 292.66,240.439 292.661,240.442C292.667,240.461 292.675,240.482 292.682,240.501C292.684,240.508 292.686,240.514 292.688,240.521C292.694,240.537 292.7,240.554 292.706,240.57C292.714,240.594 292.722,240.616 292.73,240.64C294.702,246.283 295.882,252.361 295.88,258.352C295.878,266.302 293.794,274.099 288.718,280.515C279.724,291.885 265.241,296.646 251.521,297.72C246.306,298.128 241.112,298.333 235.914,298.333Z" style="fill:rgb(179,197,205);fill-rule:nonzero;"/>
                </g>
                <g id="ojos">
                    <path d="M210.151,241.883C210.151,239.452 208.18,237.482 205.75,237.482C203.32,237.482 201.349,239.452 201.349,241.883C201.349,244.313 203.32,246.283 205.75,246.283C208.18,246.283 210.151,244.313 210.151,241.883Z" style="fill:rgb(68,96,103);fill-rule:nonzero;"/>
                    <path d="M259.997,241.883C259.997,239.452 261.967,237.482 264.399,237.482C266.829,237.482 268.799,239.452 268.799,241.883C268.799,244.313 266.829,246.283 264.399,246.283C261.967,246.283 259.997,244.313 259.997,241.883Z" style="fill:rgb(68,96,103);fill-rule:nonzero;"/>
                </g>
            </g>
        </g>
    </g>
</svg>
