<?xml version="1.0" encoding="UTF-8" standalone="no"?>
<!DOCTYPE svg PUBLIC "-//W3C//DTD SVG 1.1//EN" "http://www.w3.org/Graphics/SVG/1.1/DTD/svg11.dtd">
<svg width="100%" height="100%" viewBox="0 0 667 416" version="1.1" xmlns="http://www.w3.org/2000/svg" xmlns:xlink="http://www.w3.org/1999/xlink" xml:space="preserve" xmlns:serif="http://www.serif.com/" style="fill-rule:evenodd;clip-rule:evenodd;stroke-linejoin:round;stroke-miterlimit:2;">
    <g transform="matrix(1,0,0,1,-1331,-778)">
        <g transform="matrix(4.16667,0,0,4.16667,0,0)">
            <g id="monkey">
                <g>
                    <path d="M351.474,219.364C348.384,213.29 340.277,211.626 334.109,212.944C327.942,214.262 322.658,218.585 320.626,224.621C319.937,226.669 319.669,228.836 319.556,230.994C319.463,232.751 319.472,234.522 319.749,236.259C320.64,241.849 324.438,246.806 329.439,249.388C335.017,252.268 341.701,251.794 346.861,248.331" style="fill:rgb(243,148,83);fill-rule:nonzero;"/>
                    <path d="M447.429,219.364C450.52,213.29 458.627,211.627 464.794,212.944C470.962,214.262 476.245,218.584 478.277,224.621C478.967,226.669 479.235,228.836 479.348,230.994C479.44,232.751 479.432,234.522 479.155,236.259C478.264,241.849 474.465,246.806 469.465,249.388C463.887,252.268 457.202,251.794 452.043,248.331L447.429,219.364Z" style="fill:rgb(243,148,83);fill-rule:nonzero;"/>
                    <path d="M348.144,222.892C345.995,218.668 340.357,217.511 336.068,218.428C331.78,219.344 328.106,222.35 326.692,226.548C326.213,227.972 326.027,229.479 325.948,230.98C325.884,232.202 325.89,233.433 326.082,234.641C326.702,238.528 329.343,241.975 332.821,243.771C336.7,245.773 341.348,245.444 344.936,243.036" style="fill:rgb(248,210,184);fill-rule:nonzero;"/>
                    <path d="M450.759,222.892C452.908,218.668 458.546,217.511 462.835,218.428C467.124,219.344 470.798,222.35 472.211,226.548C472.69,227.972 472.877,229.479 472.955,230.98C473.02,232.202 473.014,233.433 472.821,234.641C472.201,238.528 469.56,241.975 466.083,243.771C462.204,245.773 457.556,245.444 453.967,243.036L450.759,222.892Z" style="fill:rgb(248,210,184);fill-rule:nonzero;"/>
                    <path d="M452.086,219.787C447.331,208.69 438.535,199.507 427.934,193.814C422.514,190.904 417.325,188.425 411.211,187.626C403.861,186.666 396.31,186.665 388.948,187.626C382.834,188.425 377.646,190.904 372.226,193.814C361.625,199.507 352.829,208.69 348.074,219.787C342.838,232.008 341.001,247.129 345.519,259.844C353.131,281.267 378.019,287.003 400.08,286.359C422.141,287.003 447.029,281.267 454.641,259.844C459.159,247.129 457.322,232.008 452.086,219.787Z" style="fill:rgb(249,166,103);fill-rule:nonzero;"/>
                    <path d="M445.6,238.189C444.588,232.615 443.063,227.034 440.052,222.227C435.2,214.48 426.178,209.868 417.017,212.002C413.183,212.895 409.425,214.9 406.357,217.276C404.582,218.65 401.881,220.999 399.49,220.6C397.325,220.239 395.45,218.551 393.802,217.276C390.734,214.9 386.976,212.895 383.142,212.002C373.982,209.868 364.96,214.48 360.108,222.227C357.097,227.034 355.572,232.615 354.56,238.189C353.558,243.707 353.532,249.192 354.598,254.679C355.59,259.785 360.141,264.944 363.98,268.204C367.948,271.574 372.617,274.034 377.419,276.06C384.289,278.958 392.227,279.892 399.961,279.833L400.08,279.832L400.198,279.831C407.932,279.892 415.871,278.958 422.74,276.06C427.542,274.034 432.212,271.574 436.179,268.204C440.019,264.944 444.57,259.785 445.562,254.679C446.628,249.192 446.602,243.707 445.6,238.189Z" style="fill:rgb(248,210,184);fill-rule:nonzero;"/>
                    <path d="M399.455,244.453C399.538,247.846 399.621,251.239 399.704,254.632C399.72,255.276 400.72,255.277 400.704,254.632C400.621,251.239 400.538,247.846 400.455,244.453C400.44,243.809 399.44,243.808 399.455,244.453Z" style="fill:rgb(123,52,75);fill-rule:nonzero;"/>
                    <path d="M393.105,250.119C394.002,253.22 396.886,255.189 400.024,255.472C403.807,255.815 406.24,251.855 407.055,248.759C407.219,248.135 406.255,247.87 406.091,248.493C405.404,251.102 404.128,253.229 401.503,254.248C398.476,255.424 394.882,252.663 394.069,249.853C393.89,249.235 392.925,249.498 393.105,250.119Z" style="fill:rgb(123,52,75);fill-rule:nonzero;"/>
                    <path d="M402.399,247.918C404.331,246.677 409.858,241.757 405.599,239.91C403.938,239.19 401.963,239.296 400.193,239.303C398.381,239.31 392.167,239.544 392.898,242.462C393.382,244.394 394.78,245.849 396.313,247.035C397.941,248.294 399.433,249.506 401.519,248.427C401.819,248.272 402.113,248.101 402.399,247.918Z" style="fill:rgb(123,52,75);fill-rule:nonzero;"/>
                    <path d="M380.03,258.379C378.775,258.379 377.538,258.197 376.421,257.645C374.582,256.738 373.241,254.531 373.947,252.606C374.79,250.31 378.104,249.112 381.308,249.112C385.511,249.112 389.525,251.174 387.522,255.524C386.686,257.339 384.437,257.947 382.455,258.201C381.658,258.304 380.84,258.379 380.03,258.379Z" style="fill:rgb(247,187,164);fill-rule:nonzero;"/>
                    <path d="M421.285,258.379C420.475,258.379 419.658,258.304 418.86,258.201C416.878,257.947 414.63,257.339 413.794,255.524C411.791,251.174 415.805,249.112 420.007,249.112C423.212,249.112 426.526,250.31 427.368,252.606C428.074,254.531 426.733,256.738 424.895,257.645C423.777,258.197 422.54,258.379 421.285,258.379Z" style="fill:rgb(247,187,164);fill-rule:nonzero;"/>
                    <path d="M403.322,286.407C402.236,286.407 401.154,286.391 400.08,286.359C399.009,286.391 397.934,286.407 396.852,286.407C384.449,286.407 371.48,284.282 361.397,278.444C368.557,279.702 375.965,280.032 383.19,280.078C383.47,280.08 383.748,280.081 384.029,280.081C387.358,280.081 390.7,279.953 394.025,279.668C395.775,279.783 397.53,279.835 399.278,279.835C399.506,279.835 399.733,279.834 399.961,279.833L400.08,279.832L400.198,279.831C400.431,279.833 400.665,279.834 400.898,279.834C408.41,279.834 416.077,278.871 422.74,276.06C427.542,274.034 432.212,271.574 436.179,268.204C440.019,264.944 444.57,259.785 445.562,254.679C446.084,251.991 446.344,249.303 446.356,246.612C449.459,238.393 450.796,229.304 451.55,220.913C451.61,220.239 451.642,219.566 451.681,218.893C451.816,219.191 451.957,219.486 452.086,219.787C455.277,227.234 457.205,235.758 457.202,244.158C457.202,244.295 457.202,244.431 457.201,244.567C457.185,246.581 457.058,248.587 456.809,250.568C456.411,253.747 455.701,256.862 454.641,259.844C454.527,260.163 454.411,260.477 454.29,260.789C446.684,280.413 424.193,286.407 403.322,286.407Z" style="fill:rgb(248,157,94);fill-rule:nonzero;"/>
                    <path d="M399.278,279.835C397.53,279.835 395.775,279.783 394.025,279.668C409.14,278.375 423.894,273.848 435.409,263.424C440.486,258.828 443.951,252.981 446.356,246.612C446.344,249.303 446.084,251.991 445.562,254.679C444.57,259.785 440.019,264.944 436.179,268.204C432.212,271.574 427.542,274.034 422.74,276.06C416.077,278.871 408.41,279.834 400.898,279.834C400.665,279.834 400.431,279.833 400.198,279.831L400.08,279.832L399.961,279.833C399.733,279.834 399.506,279.835 399.278,279.835Z" style="fill:rgb(248,198,166);fill-rule:nonzero;"/>
                </g>
                <g id="ojos">
                    <path d="M387.826,241.773C387.826,239.342 385.856,237.372 383.426,237.372C380.995,237.372 379.025,239.342 379.025,241.773C379.025,244.203 380.995,246.173 383.426,246.173C385.856,246.173 387.826,244.203 387.826,241.773Z" style="fill:rgb(123,52,75);fill-rule:nonzero;"/>
                    <path d="M413.49,241.773C413.49,239.342 415.46,237.372 417.89,237.372C420.32,237.372 422.291,239.342 422.291,241.773C422.291,244.203 420.32,246.173 417.89,246.173C415.46,246.173 413.49,244.203 413.49,241.773Z" style="fill:rgb(123,52,75);fill-rule:nonzero;"/>
                </g>
            </g>
        </g>
    </g>
</svg>
