<?xml version="1.0" encoding="UTF-8" standalone="no"?>
<!DOCTYPE svg PUBLIC "-//W3C//DTD SVG 1.1//EN" "http://www.w3.org/Graphics/SVG/1.1/DTD/svg11.dtd">
<svg width="100%" height="100%" viewBox="0 0 518 492" version="1.1" xmlns="http://www.w3.org/2000/svg" xmlns:xlink="http://www.w3.org/1999/xlink" xml:space="preserve" xmlns:serif="http://www.serif.com/" style="fill-rule:evenodd;clip-rule:evenodd;stroke-linejoin:round;stroke-miterlimit:2;">
    <g transform="matrix(1,0,0,1,-85,-1362)">
        <g transform="matrix(4.16667,0,0,4.16667,0,0)">
            <g id="panda">
                <g>
                    <path d="M110.674,355.165C103.79,347.464 103.008,332.426 114.176,328.127C123.316,324.609 133.809,329.54 139.073,337.464C145.774,347.552 131.482,359.776 122.319,360.578" style="fill:rgb(127,74,96);fill-rule:nonzero;"/>
                    <path d="M54.514,355.165C61.398,347.464 62.18,332.426 51.011,328.127C41.872,324.609 31.379,329.54 26.115,337.464C19.414,347.552 33.706,359.776 42.869,360.578" style="fill:rgb(127,74,96);fill-rule:nonzero;"/>
                    <path d="M127.464,360.514C102.072,342.772 63.082,342.812 37.748,360.514C21.662,371.755 18.541,396.976 21.703,414.996C22.964,422.187 25.968,429.201 31.439,434.136C40.392,442.213 54.997,443.85 66.445,444.561C71.825,444.896 77.219,444.948 82.606,444.78C87.994,444.948 93.387,444.896 98.767,444.561C110.215,443.85 124.82,442.213 133.774,434.136C139.245,429.201 142.248,422.187 143.51,414.996C146.672,396.976 143.55,371.755 127.464,360.514Z" style="fill:white;fill-rule:nonzero;"/>
                    <path d="M62.069,420.461C69.968,415.549 73.362,405.926 74.365,397.105C74.776,393.498 75.306,390.249 74.547,386.617C73.206,380.202 69.225,376.975 63.181,375.014C51.679,371.283 38.728,379.513 34.12,389.958C29.787,399.78 30.854,412.363 39.666,419.208C41.014,420.255 42.586,420.979 44.193,421.553C50.01,423.632 56.824,423.724 62.069,420.461Z" style="fill:rgb(127,74,96);fill-rule:nonzero;"/>
                    <path d="M103.031,420.461C95.131,415.549 91.738,405.926 90.734,397.105C90.324,393.498 89.794,390.249 90.553,386.617C91.894,380.202 95.875,376.975 101.918,375.014C113.421,371.283 126.372,379.513 130.979,389.958C135.313,399.78 134.246,412.363 125.434,419.208C124.086,420.255 122.514,420.979 120.907,421.553C115.09,423.632 108.276,423.723 103.031,420.461Z" style="fill:rgb(127,74,96);fill-rule:nonzero;"/>
                    <path d="M68.106,411.628C71.906,403.375 55.591,402.774 53.495,408.487C52.735,410.559 54.179,412.934 56.158,413.911C58.137,414.888 60.464,414.79 62.653,414.509C64.786,414.236 67.207,413.581 68.106,411.628Z" style="fill:rgb(247,169,172);fill-rule:nonzero;"/>
                    <path d="M82.33,395.743C82.415,397.808 82.501,399.873 82.586,401.938C82.616,402.662 83.743,402.665 83.713,401.938C83.628,399.873 83.542,397.808 83.457,395.743C83.427,395.019 82.3,395.016 82.33,395.743Z" style="fill:rgb(91,45,61);fill-rule:nonzero;"/>
                    <path d="M77.053,398.849C79.736,404.155 87.142,403.503 89.024,397.935C89.257,397.245 88.169,396.951 87.937,397.636C86.343,402.353 80.24,402.657 78.026,398.281C77.698,397.632 76.726,398.203 77.053,398.849Z" style="fill:rgb(91,45,61);fill-rule:nonzero;"/>
                    <path d="M96.993,411.628C93.193,403.375 109.508,402.774 111.605,408.487C112.365,410.559 110.921,412.934 108.942,413.911C106.963,414.888 104.636,414.79 102.447,414.509C100.314,414.236 97.893,413.581 96.993,411.628Z" style="fill:rgb(247,169,172);fill-rule:nonzero;"/>
                    <path d="M84.026,397.446C85.351,397.08 86.318,396.045 87.22,395.07C88.009,394.219 89.023,393.265 88.79,391.963C88.62,391.011 87.297,390.647 86.511,390.457C85.641,390.248 84.752,390.121 83.859,390.076C82.114,389.989 80.351,390.215 78.688,390.753C77.706,391.071 76.59,391.603 76.984,392.825C77.692,395.018 80.736,397.587 83.116,397.573C83.433,397.571 83.736,397.526 84.026,397.446Z" style="fill:rgb(91,45,61);fill-rule:nonzero;"/>
                    <path d="M66.691,444.577C66.609,444.572 66.527,444.567 66.445,444.561C66.527,444.567 66.609,444.572 66.691,444.577ZM66.385,444.558L66.382,444.558L66.385,444.558ZM66.323,444.554L66.32,444.554L66.323,444.554ZM143.521,414.932C143.522,414.926 143.523,414.92 143.524,414.913C143.523,414.919 143.522,414.926 143.521,414.932ZM143.533,414.866C143.534,414.859 143.535,414.854 143.536,414.847C143.535,414.853 143.534,414.86 143.533,414.866ZM143.558,414.718C143.559,414.713 143.56,414.708 143.561,414.703C143.56,414.708 143.559,414.713 143.558,414.718ZM143.571,414.645C143.571,414.643 143.571,414.64 143.572,414.638C143.571,414.64 143.571,414.643 143.571,414.645Z" style="fill:rgb(241,231,218);fill-rule:nonzero;"/>
                    <path d="M88.469,444.873C86.515,444.873 84.56,444.841 82.606,444.78C80.652,444.841 78.698,444.873 76.743,444.873C73.391,444.873 70.038,444.779 66.691,444.577C66.609,444.572 66.527,444.567 66.445,444.561C66.425,444.56 66.405,444.559 66.385,444.558L66.382,444.558C66.362,444.556 66.343,444.555 66.323,444.554L66.32,444.554C55.83,443.897 42.736,442.434 33.756,435.976C39.549,437.893 45.836,438.864 52.066,439.203C54.232,439.321 56.443,439.381 58.688,439.381C73.392,439.38 89.452,436.806 102.542,431.068C107.438,428.921 111.948,426.112 116.008,422.779C117.68,422.534 119.33,422.117 120.907,421.553C122.514,420.979 124.086,420.255 125.434,419.208C131.415,414.562 133.828,407.274 133.406,399.999C135.827,394.706 137.553,389.085 138.498,383.321C138.924,380.721 139.215,378.071 139.364,375.406C144.841,387.415 145.611,402.488 143.595,414.498C143.588,414.545 143.58,414.591 143.572,414.638C143.571,414.64 143.571,414.643 143.571,414.645C143.567,414.664 143.564,414.684 143.561,414.703C143.56,414.708 143.559,414.713 143.558,414.718C143.551,414.761 143.543,414.804 143.536,414.847C143.535,414.854 143.534,414.859 143.533,414.866C143.53,414.882 143.527,414.897 143.524,414.913C143.523,414.92 143.522,414.926 143.521,414.932C143.517,414.954 143.514,414.974 143.51,414.996C142.248,422.187 139.245,429.201 133.774,434.136C124.82,442.213 110.215,443.85 98.767,444.561C95.338,444.774 91.904,444.873 88.469,444.873Z" style="fill:rgb(252,251,248);fill-rule:nonzero;"/>
                    <path d="M116.008,422.779C123.455,416.664 129.388,408.784 133.406,399.999C133.828,407.274 131.415,414.562 125.434,419.208C124.086,420.255 122.514,420.979 120.907,421.553C119.33,422.117 117.68,422.534 116.008,422.779Z" style="fill:rgb(125,71,91);fill-rule:nonzero;"/>
                </g>
                <g id="ojos">
                    <path d="M65.72,396.057C65.72,393.441 63.6,391.32 60.984,391.32C58.368,391.32 56.247,393.441 56.247,396.057C56.247,398.673 58.368,400.794 60.984,400.794C63.6,400.794 65.72,398.673 65.72,396.057Z" style="fill:rgb(91,45,61);fill-rule:nonzero;"/>
                    <path d="M99.379,396.057C99.379,393.441 101.5,391.32 104.116,391.32C106.732,391.32 108.853,393.441 108.853,396.057C108.853,398.673 106.732,400.794 104.116,400.794C101.5,400.794 99.379,398.673 99.379,396.057Z" style="fill:rgb(91,45,61);fill-rule:nonzero;"/>
                </g>
            </g>
        </g>
    </g>
</svg>
