<?xml version="1.0" encoding="UTF-8" standalone="no"?>
<!DOCTYPE svg PUBLIC "-//W3C//DTD SVG 1.1//EN" "http://www.w3.org/Graphics/SVG/1.1/DTD/svg11.dtd">
<svg width="100%" height="100%" viewBox="0 0 479 411" version="1.1" xmlns="http://www.w3.org/2000/svg" xmlns:xlink="http://www.w3.org/1999/xlink" xml:space="preserve" xmlns:serif="http://www.serif.com/" style="fill-rule:evenodd;clip-rule:evenodd;stroke-linejoin:round;stroke-miterlimit:2;">
    <g transform="matrix(1,0,0,1,-1425,-180)">
        <g transform="matrix(4.16667,0,0,4.16667,0,0)">
            <g id="pig">
                <g>
                    <path d="M455.778,93.389C454.272,84.442 451.599,74.131 446.45,66.687C437.213,53.336 421.922,45.593 406.273,43.617C403.994,43.329 401.715,43.284 399.452,43.411C397.188,43.284 394.909,43.329 392.63,43.617C376.982,45.593 361.691,53.336 352.454,66.687C347.304,74.131 344.631,84.442 343.126,93.389C341.931,100.489 341.786,107.924 342.753,115.063C343.279,118.949 343.901,122.992 346.375,126.059C354.994,136.746 371.037,139.23 383.716,140.848C388.932,141.514 394.196,141.781 399.452,141.676C404.708,141.781 409.971,141.514 415.187,140.848C427.866,139.23 443.91,136.746 452.529,126.059C455.002,122.992 455.624,118.949 456.151,115.063C457.118,107.924 456.972,100.489 455.778,93.389Z" style="fill:rgb(245,158,195);fill-rule:nonzero;"/>
                    <path d="M413.363,104.926C413.363,112.895 406.442,117.267 397.904,117.267C389.366,117.267 382.444,112.895 382.444,104.926C382.444,96.958 389.366,89.454 397.904,89.454C406.442,89.454 413.363,96.958 413.363,104.926Z" style="fill:rgb(234,117,172);fill-rule:nonzero;"/>
                    <path d="M397.442,89.461L397.443,89.461L397.442,89.461ZM397.464,89.46L397.465,89.46L397.464,89.46ZM397.571,89.457L397.575,89.457L397.571,89.457ZM397.591,89.457L397.599,89.457L397.591,89.457ZM397.613,89.456L397.622,89.456L397.613,89.456ZM397.637,89.456L397.645,89.456L397.637,89.456ZM397.659,89.456C397.662,89.456 397.666,89.455 397.669,89.455C397.665,89.455 397.663,89.456 397.659,89.456ZM397.683,89.455L397.693,89.455L397.683,89.455ZM397.705,89.455L397.717,89.455L397.705,89.455ZM397.74,89.454L397.752,89.454L397.74,89.454ZM398.068,89.454L398.066,89.454L398.068,89.454ZM397.762,89.454L397.775,89.454L397.762,89.454ZM398.045,89.454L398.041,89.454L398.045,89.454ZM398.023,89.454L398.014,89.454L398.023,89.454ZM397.785,89.454L397.8,89.454L397.785,89.454ZM397.999,89.454L397.99,89.454L397.999,89.454ZM397.809,89.454L397.823,89.454L397.809,89.454ZM397.976,89.454L397.964,89.454L397.976,89.454ZM397.833,89.454L397.847,89.454L397.833,89.454ZM397.952,89.454L397.937,89.454L397.952,89.454ZM397.857,89.454L397.873,89.454L397.857,89.454ZM397.928,89.454L397.904,89.454L397.928,89.454ZM397.88,89.454L397.904,89.454L397.88,89.454Z" style="fill:rgb(246,170,202);fill-rule:nonzero;"/>
                    <path d="M382.746,102.128C384.098,95.428 390.123,89.693 397.442,89.461L397.443,89.461C397.45,89.461 397.457,89.46 397.464,89.46L397.465,89.46C397.5,89.459 397.535,89.458 397.571,89.457L397.599,89.457C397.603,89.457 397.608,89.457 397.613,89.456L397.659,89.456C397.663,89.456 397.665,89.455 397.669,89.455L397.717,89.455C397.725,89.455 397.732,89.455 397.74,89.454L398.068,89.454C401.983,89.499 405.539,91.127 408.236,93.642C406.073,93.114 403.738,92.839 401.201,92.839C401.033,92.839 400.864,92.84 400.695,92.842C393.107,92.95 386.996,96.65 382.746,102.128Z" style="fill:rgb(237,131,181);fill-rule:nonzero;"/>
                    <path d="M369.096,116.636C367.791,116.636 366.504,116.445 365.341,115.872C363.429,114.928 362.034,112.632 362.769,110.63C363.645,108.241 367.092,106.995 370.426,106.995C374.797,106.995 378.973,109.14 376.889,113.665C376.02,115.553 373.68,116.185 371.619,116.45C370.789,116.556 369.939,116.636 369.096,116.636Z" style="fill:rgb(243,139,182);fill-rule:nonzero;"/>
                    <path d="M426.84,116.636C425.998,116.636 425.148,116.556 424.318,116.45C422.256,116.185 419.917,115.553 419.048,113.665C416.964,109.14 421.139,106.995 425.511,106.995C428.844,106.995 432.292,108.241 433.168,110.63C433.902,112.632 432.508,114.928 430.595,115.872C429.433,116.445 428.146,116.636 426.84,116.636Z" style="fill:rgb(243,139,182);fill-rule:nonzero;"/>
                    <path d="M394.576,101.263C394.576,99.661 393.276,98.362 391.674,98.362C390.071,98.362 388.772,99.661 388.772,101.263C388.772,102.865 390.071,104.164 391.674,104.164C393.276,104.164 394.576,102.865 394.576,101.263Z" style="fill:rgb(127,63,97);fill-rule:nonzero;"/>
                    <path d="M407.035,101.263C407.035,99.661 405.736,98.362 404.134,98.362C402.531,98.362 401.232,99.661 401.232,101.263C401.232,102.865 402.531,104.164 404.134,104.164C405.736,104.164 407.035,102.865 407.035,101.263Z" style="fill:rgb(127,63,97);fill-rule:nonzero;"/>
                    <path d="M377.203,60.052C375.207,55.189 370.894,45.677 364.065,49.128C359.512,51.43 358.07,57.35 354.302,60.469C352.591,61.884 350.543,62.82 348.686,64.037C346.83,65.254 345.083,66.885 344.505,69.028C343.118,74.172 347.114,78.119 351.177,80.37C358.684,84.529 368.072,87.488 376.721,86.938C377.207,86.907 377.699,86.845 378.151,86.663C379.455,86.14 380.188,84.723 380.447,83.342C381.816,76.029 380.009,66.889 377.203,60.052Z" style="fill:rgb(234,117,172);fill-rule:nonzero;"/>
                    <path d="M401.66,141.698C406.181,141.698 410.701,141.421 415.187,140.848C427.866,139.23 443.91,136.746 452.529,126.059C455.002,122.992 455.624,118.949 456.151,115.063C456.577,111.912 456.788,108.703 456.786,105.491C456.788,108.703 456.577,111.912 456.151,115.063C455.624,118.949 455.002,122.992 452.529,126.059C443.91,136.746 427.866,139.23 415.187,140.848C410.701,141.421 406.181,141.698 401.66,141.698Z" style="fill:rgb(244,225,220);fill-rule:nonzero;"/>
                    <path d="M397.244,141.698C392.723,141.698 388.202,141.421 383.716,140.848C383.238,140.787 382.749,140.723 382.262,140.659C389.365,140.12 396.464,139.372 403.455,137.969C416.66,135.32 430.895,128.878 439.063,117.721C447.076,106.776 448.209,92.804 447.471,79.622C447.215,75.05 446.715,70.365 445.784,65.787C446.009,66.084 446.236,66.379 446.45,66.687C451.599,74.131 454.272,84.442 455.778,93.389C456.445,97.355 456.785,101.425 456.786,105.491C456.788,108.703 456.577,111.912 456.151,115.063C455.624,118.949 455.002,122.992 452.529,126.059C443.91,136.746 427.866,139.23 415.187,140.848C410.701,141.421 406.181,141.698 401.66,141.698C401.039,141.698 400.418,141.693 399.797,141.682C399.682,141.681 399.567,141.678 399.452,141.676C398.716,141.691 397.98,141.698 397.244,141.698Z" style="fill:rgb(244,150,190);fill-rule:nonzero;"/>
                    <path d="M420.254,60.052C422.25,55.189 426.563,45.677 433.393,49.128C437.946,51.43 439.387,57.35 443.156,60.469C444.866,61.884 446.915,62.82 448.771,64.037C450.627,65.254 452.374,66.885 452.952,69.028C454.339,74.172 450.343,78.119 446.28,80.37C438.773,84.529 429.386,87.488 420.737,86.938C420.25,86.907 419.759,86.845 419.306,86.663C418.003,86.14 417.269,84.723 417.01,83.342C415.641,76.029 417.448,66.889 420.254,60.052Z" style="fill:rgb(234,117,172);fill-rule:nonzero;"/>
                </g>
                <g id="ojos">
                    <path d="M377.206,99.361C377.206,96.833 375.156,94.784 372.628,94.784C370.1,94.784 368.051,96.833 368.051,99.361C368.051,101.889 370.1,103.938 372.628,103.938C375.156,103.938 377.206,101.889 377.206,99.361Z" style="fill:rgb(123,52,75);fill-rule:nonzero;"/>
                    <path d="M418.731,99.361C418.731,96.833 420.78,94.784 423.309,94.784C425.837,94.784 427.886,96.833 427.886,99.361C427.886,101.889 425.837,103.938 423.309,103.938C420.78,103.938 418.731,101.889 418.731,99.361Z" style="fill:rgb(123,52,75);fill-rule:nonzero;"/>
                </g>
            </g>
        </g>
    </g>
</svg>
