<?xml version="1.0" encoding="UTF-8" standalone="no"?>
<!DOCTYPE svg PUBLIC "-//W3C//DTD SVG 1.1//EN" "http://www.w3.org/Graphics/SVG/1.1/DTD/svg11.dtd">
<svg width="100%" height="100%" viewBox="0 0 517 490" version="1.1" xmlns="http://www.w3.org/2000/svg" xmlns:xlink="http://www.w3.org/1999/xlink" xml:space="preserve" xmlns:serif="http://www.serif.com/" style="fill-rule:evenodd;clip-rule:evenodd;stroke-linejoin:round;stroke-miterlimit:2;">
    <g transform="matrix(1,0,0,1,-1406,-1363)">
        <g transform="matrix(4.16667,0,0,4.16667,0,0)">
            <g id="tiger">
                <g>
                    <path d="M430.124,354.591C429.276,353.148 428.575,351.619 428.03,350.037C425.148,341.678 427.426,329.918 437.341,327.734C444.619,326.132 453.303,329.536 458.032,335.177C461.609,339.441 462.088,345.888 460.071,350.947C457.194,358.165 446.15,361.105 439.202,361.728L430.124,354.591Z" style="fill:rgb(244,179,46);fill-rule:nonzero;"/>
                    <path d="M368.72,354.591C369.568,353.148 370.268,351.619 370.814,350.037C373.696,341.678 371.418,329.918 361.502,327.734C354.225,326.132 345.54,329.536 340.811,335.177C337.235,339.441 336.755,345.888 338.772,350.947C341.649,358.165 352.693,361.105 359.641,361.728L368.72,354.591Z" style="fill:rgb(244,179,46);fill-rule:nonzero;"/>
                    <path d="M434.221,354.519C433.915,352.021 433.647,349.476 434.105,347.002C434.785,343.328 437.316,339.775 441.397,340.115C446.367,340.53 450.245,344.652 449.803,349.806C449.409,354.399 441.467,356.846 437.744,357.466L434.221,354.519Z" style="fill:rgb(123,52,75);fill-rule:nonzero;"/>
                    <path d="M364.622,354.519C364.928,352.021 365.196,349.476 364.738,347.002C364.059,343.328 361.527,339.775 357.447,340.115C352.477,340.53 348.598,344.652 349.041,349.806C349.435,354.399 357.377,356.846 361.099,357.466L364.622,354.519Z" style="fill:rgb(123,52,75);fill-rule:nonzero;"/>
                    <path d="M459.31,385.573C456.64,374.801 451.024,364.783 442.732,357.341C433.216,348.799 420.518,344.497 407.969,343.127C391.126,341.289 372.564,345.783 359.687,357.341C351.396,364.783 345.779,374.801 343.11,385.573C340.454,396.29 340.094,409.553 344.12,419.976C346.133,425.186 349.997,428.877 354.303,432.233C363.517,439.417 374.91,441.838 386.299,443.4C391.162,444.066 396.064,444.439 400.956,444.509L401.21,444.503L401.464,444.496C406.355,444.439 411.258,444.066 416.121,443.4C427.509,441.838 438.902,439.417 448.117,432.233C452.423,428.877 456.287,425.186 458.299,419.976C462.326,409.553 461.965,396.29 459.31,385.573Z" style="fill:rgb(247,208,47);fill-rule:nonzero;"/>
                    <path d="M404.077,362.419C406.378,356.26 406.974,349.666 407.111,343.054C403.293,342.687 399.398,342.637 395.503,342.926C396.072,349.539 397.685,356.062 400.301,362.162C400.741,363.187 401.561,364.39 402.648,364.138C403.406,363.961 403.805,363.148 404.077,362.419Z" style="fill:rgb(123,52,75);fill-rule:nonzero;"/>
                    <path d="M410.234,343.408C410.307,346.064 410.541,348.716 410.98,351.337C411.134,352.259 411.35,353.25 412.054,353.866C413.203,353.444 414.021,352.432 414.713,351.422C416.096,349.402 417.211,347.201 418.04,344.898C415.46,344.265 412.849,343.768 410.234,343.408Z" style="fill:rgb(123,52,75);fill-rule:nonzero;"/>
                    <path d="M384.047,344.778C384.88,347.125 386.01,349.367 387.417,351.422C388.109,352.432 388.927,353.444 390.076,353.866C390.78,353.25 390.996,352.259 391.15,351.337C391.596,348.674 391.83,345.98 391.899,343.282C389.257,343.618 386.634,344.129 384.047,344.778Z" style="fill:rgb(123,52,75);fill-rule:nonzero;"/>
                    <path d="M378.62,416.147C377.228,416.147 375.856,415.945 374.617,415.333C372.578,414.327 371.09,411.879 371.874,409.744C372.808,407.197 376.483,405.869 380.037,405.869C384.699,405.869 389.15,408.156 386.929,412.98C386.002,414.993 383.508,415.668 381.31,415.95C380.425,416.063 379.518,416.147 378.62,416.147Z" style="fill:rgb(247,188,38);fill-rule:nonzero;"/>
                    <path d="M425.321,416.147C424.422,416.147 423.516,416.063 422.631,415.95C420.433,415.668 417.939,414.993 417.012,412.98C414.79,408.156 419.242,405.869 423.903,405.869C427.457,405.869 431.133,407.197 432.067,409.744C432.85,411.879 431.363,414.327 429.324,415.333C428.085,415.945 426.713,416.147 425.321,416.147Z" style="fill:rgb(247,188,38);fill-rule:nonzero;"/>
                    <path d="M408.535,401.667C409.386,400.754 410.078,399.717 410.38,398.517C411.067,395.786 406.586,395.022 404.761,394.761C401.582,394.306 398.309,394.562 395.18,395.237C394.002,395.491 392.722,396.038 391.925,396.992C391.621,397.355 391.647,397.89 391.76,398.35C392.493,401.321 395.5,403.292 398.072,404.557C399.256,405.14 400.958,406.095 402.298,405.987C404.015,405.848 405.704,404.143 406.958,403.12C407.507,402.672 408.047,402.19 408.535,401.667Z" style="fill:rgb(123,52,75);fill-rule:nonzero;"/>
                    <path d="M400.229,401.557C400.454,405.677 400.578,409.798 400.6,413.924C400.605,414.951 402.198,414.951 402.193,413.924C402.171,409.798 402.047,405.677 401.821,401.557C401.765,400.536 400.172,400.531 400.229,401.557Z" style="fill:rgb(123,52,75);fill-rule:nonzero;"/>
                    <path d="M391.861,407.681C394.457,417.58 408.234,417.445 410.565,407.445C410.798,406.446 409.262,406.022 409.029,407.022C407.065,415.448 395.604,415.673 393.397,407.258C393.136,406.265 391.6,406.686 391.861,407.681Z" style="fill:rgb(123,52,75);fill-rule:nonzero;"/>
                    <path d="M455.214,374.161C453.817,375.991 452.218,377.665 450.438,379.124C448.393,380.8 446.102,382.225 444.43,384.272C444.234,384.513 444.038,384.788 444.049,385.097C444.071,385.77 444.944,386.007 445.616,386.031C450.114,386.191 454.637,385.406 458.833,383.78C457.905,380.473 456.695,377.25 455.214,374.161Z" style="fill:rgb(123,52,75);fill-rule:nonzero;"/>
                    <path d="M461.303,400.854C461.23,396.706 460.762,392.582 459.996,388.699C457.327,390.351 454.424,391.657 451.381,392.543C448.449,393.398 445.361,393.889 442.668,395.285C442.352,395.448 442.021,395.648 441.897,395.971C441.626,396.673 442.463,397.287 443.176,397.598C448.836,400.064 455.113,401.175 461.303,400.854Z" style="fill:rgb(123,52,75);fill-rule:nonzero;"/>
                    <path d="M461.17,406.139C460.036,406.228 458.897,406.258 457.76,406.215C455.119,406.116 452.458,405.665 449.85,406.091C449.544,406.141 449.215,406.218 449.017,406.456C448.588,406.975 449.085,407.73 449.573,408.194C452.553,411.026 456.074,413.275 459.876,414.836C460.551,412.033 460.972,409.108 461.17,406.139Z" style="fill:rgb(123,52,75);fill-rule:nonzero;"/>
                    <path d="M342.693,415.453C347.119,413.901 351.222,411.426 354.623,408.194C355.11,407.73 355.608,406.975 355.178,406.456C354.981,406.218 354.652,406.141 354.346,406.091C351.737,405.665 349.076,406.116 346.435,406.215C344.698,406.281 342.957,406.182 341.236,405.943C341.442,409.197 341.912,412.402 342.693,415.453Z" style="fill:rgb(123,52,75);fill-rule:nonzero;"/>
                    <path d="M361.528,395.285C358.835,393.889 355.746,393.398 352.814,392.543C349.163,391.479 345.711,389.815 342.629,387.665C341.745,391.808 341.204,396.26 341.117,400.738L341.284,400.757C347.988,401.379 354.869,400.278 361.019,397.598C361.733,397.287 362.569,396.673 362.299,395.971C362.174,395.648 361.844,395.448 361.528,395.285Z" style="fill:rgb(123,52,75);fill-rule:nonzero;"/>
                    <path d="M353.758,379.124C351.515,377.286 349.553,375.11 347.936,372.703C346.222,376.03 344.831,379.527 343.776,383.129C348.404,385.205 353.51,386.212 358.579,386.031C359.252,386.007 360.125,385.77 360.147,385.097C360.157,384.788 359.961,384.513 359.765,384.272C358.094,382.225 355.802,380.8 353.758,379.124Z" style="fill:rgb(123,52,75);fill-rule:nonzero;"/>
                    <path d="M386.22,443.389C386.218,443.388 386.215,443.388 386.213,443.388C386.216,443.388 386.218,443.388 386.22,443.389ZM459.31,385.573C459.305,385.553 459.3,385.534 459.295,385.515C459.3,385.534 459.305,385.553 459.31,385.573ZM459.288,385.488C459.286,385.478 459.284,385.469 459.281,385.459C459.284,385.469 459.286,385.478 459.288,385.488ZM459.272,385.421C459.271,385.416 459.27,385.412 459.268,385.407C459.27,385.412 459.271,385.417 459.272,385.421Z" style="fill:rgb(245,230,208);fill-rule:nonzero;"/>
                    <path d="M400.956,444.509C396.064,444.439 391.162,444.066 386.299,443.4C386.273,443.396 386.246,443.392 386.22,443.389C386.218,443.388 386.216,443.388 386.213,443.388C384.493,443.151 382.773,442.891 381.061,442.6C383.653,442.505 386.205,442.321 388.666,442.067C406.342,440.239 424.234,433.707 436.666,420.604C442.253,414.717 446.686,407.546 449.726,399.787C452.826,400.531 456.022,400.908 459.214,400.908C459.911,400.908 460.607,400.89 461.303,400.854C461.23,396.706 460.762,392.582 459.996,388.699C457.56,390.206 454.93,391.425 452.176,392.301C452.787,390 453.277,387.67 453.643,385.325C455.41,384.95 457.148,384.433 458.833,383.78C458.521,382.669 458.177,381.568 457.803,380.478C458.362,382.098 458.851,383.743 459.268,385.407C459.27,385.412 459.271,385.416 459.272,385.421C459.275,385.434 459.278,385.446 459.281,385.459C459.284,385.469 459.286,385.478 459.288,385.488C459.291,385.497 459.293,385.506 459.295,385.515C459.3,385.534 459.305,385.553 459.31,385.573C460.57,390.659 461.314,396.319 461.316,401.977C461.319,408.24 460.415,414.5 458.299,419.976C456.287,425.186 452.423,428.877 448.117,432.233C438.902,439.417 427.509,441.838 416.121,443.4C411.258,444.066 406.355,444.439 401.464,444.496L401.21,444.503L400.956,444.509ZM452.293,405.911C451.475,405.911 450.66,405.959 449.85,406.091C449.544,406.141 449.215,406.218 449.017,406.456C448.588,406.975 449.085,407.73 449.573,408.194C452.553,411.026 456.074,413.275 459.876,414.836C460.551,412.033 460.972,409.108 461.17,406.139C460.378,406.201 459.584,406.235 458.79,406.235C458.447,406.235 458.103,406.228 457.76,406.215C455.939,406.147 454.109,405.911 452.293,405.911ZM454.425,375.151C454.422,374.255 454.4,373.362 454.358,372.469C454.651,373.03 454.934,373.596 455.209,374.167C454.954,374.501 454.693,374.829 454.425,375.151Z" style="fill:rgb(247,202,43);fill-rule:nonzero;"/>
                    <path d="M453.643,385.325C454.169,381.947 454.436,378.538 454.425,375.151C454.693,374.829 454.954,374.501 455.209,374.167C456.193,376.217 457.06,378.325 457.803,380.478C458.177,381.568 458.521,382.669 458.833,383.78C457.148,384.433 455.41,384.95 453.643,385.325Z" style="fill:rgb(122,50,69);fill-rule:nonzero;"/>
                    <path d="M459.214,400.908C456.022,400.908 452.826,400.531 449.726,399.787C450.683,397.343 451.503,394.839 452.176,392.301C454.93,391.425 457.56,390.206 459.996,388.699C460.762,392.582 461.23,396.706 461.303,400.854C460.607,400.89 459.911,400.908 459.214,400.908Z" style="fill:rgb(122,50,69);fill-rule:nonzero;"/>
                    <path d="M459.876,414.836C456.074,413.275 452.553,411.026 449.573,408.194C449.085,407.73 448.588,406.975 449.017,406.456C449.215,406.218 449.544,406.141 449.85,406.091C450.66,405.959 451.475,405.911 452.293,405.911C454.109,405.911 455.939,406.147 457.76,406.215C458.103,406.228 458.447,406.235 458.79,406.235C459.584,406.235 460.378,406.201 461.17,406.139C460.972,409.108 460.551,412.033 459.876,414.836Z" style="fill:rgb(122,50,69);fill-rule:nonzero;"/>
                    <path d="M343.59,418.481C343.255,417.492 342.957,416.481 342.694,415.452C343.126,415.301 343.554,415.141 343.979,414.972C343.825,416.138 343.695,417.308 343.59,418.481ZM342.04,412.497C341.326,408.69 341.045,404.704 341.12,400.738L341.284,400.757C342.503,400.87 343.73,400.926 344.955,400.926C345.702,400.926 346.448,400.905 347.194,400.864C346.607,402.633 346.09,404.424 345.638,406.234C345.552,406.235 345.467,406.235 345.382,406.235C343.995,406.235 342.609,406.134 341.236,405.943C341.376,408.161 341.64,410.357 342.04,412.497Z" style="fill:rgb(247,216,55);fill-rule:nonzero;"/>
                    <path d="M342.964,386.176C342.964,386.174 342.965,386.172 342.965,386.17C342.965,386.172 342.964,386.174 342.964,386.176ZM342.977,386.119C342.978,386.114 342.98,386.109 342.981,386.105C342.979,386.11 342.978,386.114 342.977,386.119ZM342.992,386.059C342.993,386.053 342.994,386.048 342.996,386.042C342.994,386.048 342.993,386.054 342.992,386.059ZM343.006,386C343.008,385.992 343.009,385.985 343.011,385.977C343.009,385.985 343.008,385.992 343.006,386ZM343.02,385.939C343.022,385.931 343.024,385.923 343.026,385.915C343.024,385.923 343.022,385.931 343.02,385.939ZM343.035,385.879C343.037,385.869 343.04,385.859 343.042,385.85C343.04,385.859 343.037,385.869 343.035,385.879ZM343.05,385.818C343.052,385.807 343.055,385.797 343.058,385.786C343.055,385.797 343.052,385.807 343.05,385.818ZM343.065,385.757C343.068,385.744 343.071,385.732 343.074,385.719C343.071,385.732 343.068,385.744 343.065,385.757ZM343.08,385.696C343.083,385.682 343.087,385.668 343.09,385.654C343.087,385.668 343.083,385.682 343.08,385.696ZM343.095,385.634C343.1,385.613 343.105,385.593 343.11,385.573C343.105,385.593 343.1,385.614 343.095,385.634ZM408.517,343.189C408.515,343.189 408.512,343.188 408.51,343.188C408.512,343.188 408.515,343.189 408.517,343.189ZM408.457,343.182C408.453,343.182 408.449,343.181 408.445,343.181C408.449,343.181 408.452,343.182 408.457,343.182ZM408.395,343.175C408.389,343.174 408.382,343.174 408.376,343.173C408.382,343.174 408.389,343.174 408.395,343.175ZM408.311,343.165C408.297,343.164 408.283,343.162 408.269,343.161C408.283,343.162 408.297,343.164 408.311,343.165ZM408.238,343.157C408.226,343.156 408.215,343.155 408.203,343.153C408.215,343.155 408.226,343.156 408.238,343.157ZM408.17,343.15C408.158,343.148 408.144,343.147 408.132,343.145C408.145,343.147 408.157,343.148 408.17,343.15ZM408.105,343.142C408.09,343.141 408.076,343.139 408.061,343.137C408.076,343.139 408.09,343.141 408.105,343.142ZM408.036,343.135C408.014,343.132 407.992,343.13 407.969,343.127C407.991,343.13 408.014,343.132 408.036,343.135Z" style="fill:rgb(249,242,233);fill-rule:nonzero;"/>
                    <path d="M341.746,392.721C342.053,390.474 342.464,388.279 342.964,386.176C342.964,386.174 342.965,386.172 342.965,386.17C342.969,386.153 342.973,386.136 342.977,386.119C342.978,386.114 342.979,386.11 342.981,386.105C342.984,386.089 342.988,386.074 342.992,386.059C342.993,386.054 342.994,386.048 342.996,386.042C342.999,386.029 343.003,386.013 343.006,386C343.008,385.992 343.009,385.985 343.011,385.977C343.014,385.964 343.017,385.952 343.02,385.939L343.035,385.879C343.037,385.869 343.04,385.859 343.042,385.85C343.045,385.839 343.047,385.828 343.05,385.818C343.052,385.807 343.055,385.797 343.058,385.786C343.06,385.776 343.062,385.767 343.065,385.757C343.068,385.744 343.071,385.732 343.074,385.719C343.076,385.712 343.078,385.703 343.08,385.696C343.083,385.682 343.087,385.668 343.09,385.654C343.092,385.647 343.093,385.641 343.095,385.634C343.1,385.614 343.105,385.593 343.11,385.573C345.779,374.801 351.396,364.783 359.687,357.341C370.71,347.446 385.898,342.729 400.61,342.729C403.083,342.729 405.545,342.863 407.969,343.127C407.992,343.13 408.014,343.132 408.036,343.135C408.045,343.136 408.052,343.136 408.061,343.137C408.076,343.139 408.09,343.141 408.105,343.142C408.113,343.143 408.123,343.144 408.132,343.145C408.144,343.147 408.158,343.148 408.17,343.15C408.181,343.151 408.192,343.152 408.203,343.153C408.215,343.155 408.226,343.156 408.238,343.157C408.248,343.158 408.259,343.16 408.269,343.161C408.283,343.162 408.297,343.164 408.311,343.165C408.333,343.168 408.354,343.17 408.376,343.173C408.382,343.174 408.389,343.174 408.395,343.175C408.411,343.177 408.428,343.179 408.445,343.181C408.449,343.181 408.453,343.182 408.457,343.182C408.474,343.184 408.492,343.186 408.51,343.188C408.512,343.188 408.515,343.189 408.517,343.189C418.633,344.362 428.811,347.457 437.314,353.147C435.455,352.7 433.561,352.318 431.623,352.022C426.239,351.198 420.71,350.745 415.167,350.745L415.162,350.745C416.339,348.914 417.303,346.947 418.04,344.898C415.46,344.265 412.849,343.768 410.234,343.408C410.303,345.895 410.512,348.379 410.899,350.836C409.473,350.897 408.049,350.99 406.629,351.115C406.923,348.45 407.055,345.754 407.111,343.054C404.944,342.846 402.751,342.74 400.548,342.74C398.87,342.74 397.186,342.801 395.503,342.926C395.78,346.147 396.305,349.345 397.072,352.484C391.214,353.665 385.513,355.482 380.14,358.038C370.17,362.781 362.323,371.487 356.41,381.175C355.526,380.492 354.62,379.831 353.758,379.124C351.515,377.286 349.553,375.11 347.936,372.703C346.222,376.03 344.831,379.527 343.776,383.129C346.931,384.544 350.307,385.462 353.743,385.846C352.676,387.844 351.685,389.863 350.77,391.878C347.874,390.834 345.129,389.409 342.629,387.665C342.278,389.308 341.982,390.999 341.746,392.721ZM391.899,343.282C389.257,343.618 386.634,344.129 384.047,344.778C384.88,347.125 386.01,349.367 387.417,351.422C388.109,352.432 388.927,353.444 390.076,353.866C390.78,353.25 390.996,352.259 391.15,351.337C391.596,348.674 391.83,345.98 391.899,343.282Z" style="fill:rgb(247,216,55);fill-rule:nonzero;"/>
                    <path d="M397.072,352.484C396.305,349.345 395.78,346.147 395.503,342.926C397.186,342.801 398.87,342.74 400.548,342.74C402.751,342.74 404.944,342.846 407.111,343.054C407.055,345.754 406.923,348.45 406.629,351.115C403.416,351.399 400.221,351.85 397.072,352.484Z" style="fill:rgb(144,62,89);fill-rule:nonzero;"/>
                    <path d="M410.899,350.836C410.512,348.379 410.303,345.895 410.234,343.408C412.849,343.768 415.46,344.265 418.04,344.898C417.303,346.947 416.339,348.914 415.162,350.745C413.741,350.745 412.319,350.775 410.899,350.836Z" style="fill:rgb(144,62,89);fill-rule:nonzero;"/>
                    <path d="M390.076,353.866C388.927,353.444 388.109,352.432 387.417,351.422C386.01,349.367 384.88,347.125 384.047,344.778C386.634,344.129 389.257,343.618 391.899,343.282C391.83,345.98 391.596,348.674 391.15,351.337C390.996,352.259 390.78,353.25 390.076,353.866Z" style="fill:rgb(144,62,89);fill-rule:nonzero;"/>
                    <path d="M342.694,415.452C342.445,414.482 342.228,413.496 342.04,412.497C341.64,410.357 341.376,408.161 341.236,405.943C342.609,406.134 343.995,406.235 345.382,406.235C345.467,406.235 345.552,406.235 345.638,406.234C344.92,409.108 344.37,412.028 343.979,414.972C343.554,415.141 343.126,415.301 342.694,415.452Z" style="fill:rgb(144,62,89);fill-rule:nonzero;"/>
                    <path d="M344.955,400.926C343.73,400.926 342.503,400.87 341.284,400.757L341.12,400.738C341.171,398.036 341.388,395.342 341.746,392.721C341.982,390.999 342.278,389.308 342.629,387.665C345.129,389.409 347.874,390.834 350.77,391.878C349.962,393.659 349.212,395.438 348.52,397.197C348.045,398.407 347.602,399.63 347.194,400.864C346.448,400.905 345.702,400.926 344.955,400.926Z" style="fill:rgb(144,62,89);fill-rule:nonzero;"/>
                    <path d="M353.743,385.846C350.307,385.462 346.931,384.544 343.776,383.129C344.831,379.527 346.222,376.03 347.936,372.703C349.553,375.11 351.515,377.286 353.758,379.124C354.62,379.831 355.526,380.492 356.41,381.175C355.473,382.712 354.584,384.272 353.743,385.846Z" style="fill:rgb(144,62,89);fill-rule:nonzero;"/>
                </g>
                <g id="ojos">
                    <path d="M384.47,396.936C384.47,394.241 382.285,392.055 379.589,392.055C376.894,392.055 374.709,394.241 374.709,396.936C374.709,399.632 376.894,401.817 379.589,401.817C382.285,401.817 384.47,399.632 384.47,396.936Z" style="fill:rgb(123,52,75);fill-rule:nonzero;"/>
                    <path d="M419.471,396.936C419.471,394.241 421.656,392.055 424.351,392.055C427.047,392.055 429.232,394.241 429.232,396.936C429.232,399.632 427.047,401.817 424.351,401.817C421.656,401.817 419.471,399.632 419.471,396.936Z" style="fill:rgb(123,52,75);fill-rule:nonzero;"/>
                </g>
            </g>
        </g>
    </g>
</svg>
